<?xml version="1.0" encoding="utf-8"?>
<!-- Generator: Adobe Illustrator 16.0.0, SVG Export Plug-In . SVG Version: 6.00 Build 0)  -->
<!DOCTYPE svg PUBLIC "-//W3C//DTD SVG 1.1//EN" "http://www.w3.org/Graphics/SVG/1.1/DTD/svg11.dtd">
<svg version="1.1" id="Tryb_izolacji" xmlns="http://www.w3.org/2000/svg" xmlns:xlink="http://www.w3.org/1999/xlink" x="0px"
	 y="0px" width="166px" height="158.625px" viewBox="0 0 166 158.625" enable-background="new 0 0 166 158.625"
	 xml:space="preserve">
<g>
	<path fill-rule="evenodd" clip-rule="evenodd" fill="#291E11" d="M11.194,65.223l0.148,0.64
		C-6.835,70.063,0.18,99.688,22.775,94.75c6.841,21.709,23.924,37.887,44.54,43.82c32.453,9.342,66.306-6.794,79.354-37.638
		c10.322-4.28,25.239-20.714,14.759-27.682c0.134-2.883,0.681-3.327-1.271-7.517c1.738-3.314,5.432-6.861,0.958-15.215
		c-0.249-0.465-1.216-2.013-1.62-2.17c-1.074-0.416-1.067,1.174-1.522,1.74c-2.056,2.561-3.744,1.673-6.36,1.625
		c-0.95-0.017-1.92-0.064-2.915,0.035c-0.379,0.038-0.886,0.18-1.092-0.017c-12.784-32.422-45.244-47.308-75-41.262
		C57.694,13.5,43.415,21.682,32.723,35.758c-1.129,0.294-2.712,0.851-3.536,1.218C18.2,41.859,8.196,52.249,11.194,65.223"/>
	<path fill-rule="evenodd" clip-rule="evenodd" fill="#897442" d="M14.313,67.674c-18.105,0.588-12.929,29.673,7.31,25.01
		c8.868-1.746,12.062-6.874,12.569-7.578c10.99,6.051,20.836-3.503,22.529-7.15c0.524,1.197,2.029,2.541,3.113,3.029
		c4.218,1.904,7.728,0.481,10.965-2.616c0.554-0.53,1.038-1.138,1.584-1.613c1.558,1.476,3.811,2.319,7.463,1.347
		c3.03-0.943,3.483-1.901,5.516-4.289c6.579,4.588,13.574-2.218,15.924-4.861l0.903,0.736c-0.829,0.798-0.83,0.563-1.853,1.796
		c-0.399,0.482-0.93,1.627-1.134,2.251c-5.464,0.268-10.387,3.47-13.51,7.681c-0.253,0.342-0.319,0.588-0.594,0.795
		c-1.383-1.232-1.917-1.959-3.72-2.675c-1.612-0.64-3.037-0.567-5.032-0.569c-8.354-0.01-13.371,8.113-17.076,14.405
		c-0.98,1.664-1.768,3.498-2.947,5.041c-2.378,3.11-2.232,6.503,1.08,8.741c0.492,1.169,1.465,3.045,2.652,4.391
		c6.799,9.223,19.94,1.776,22.161-2.768c0.903,0.961,1.852,1.342,3.126,1.846c2.776,1.098,6.023,0.38,8.542-0.882
		c1.857-0.978,2.366-2.015,3.252-2.513c2.413,1.19,5.74,1.875,9.363-0.475c0.42-0.209,0.842-0.508,1.228-0.676
		c-0.908,2.74-4.031,6.928-4.071,9.537c-0.033,2.159-0.072,1.986,0.908,3.916c0.541,1.066,1.683,1.719,2.654,2.137
		c3.367,1.446,8.938-0.38,11.687-2.391c4.021-2.939,6.739-10.291,8.337-14.961c0.194-0.57,0.376-1.13,0.554-1.688
		c0.169-0.529,0.252-1.248,0.712-1.585c1.513-1.104,3.313-2.827,4.301-4.433c0.213-0.348,0.242-0.468,0.504-0.701
		c1.428,0.762,0.791,1.352,4.505,2.803c1.445,0.564,4.245,0.752,6.135,0.342c7.309-1.593,13.545-8.793,16.869-14.738
		c1.087-1.947,1.461-3.118,1.402-5.457c-0.066-2.699-2.225-3.797-3.566-4.208c0.896-2.63,0.599-5.887-1.731-8.937
		c0.269-0.418,1.176-1.381,1.597-1.911c0.829-1.045,1.326-2.403,1.671-3.88c0.55-2.353,0.172-5.413-0.938-7.945
		c-0.817,0.743-1.507,1.619-2.719,1.97c-3.241,0.939-3.971-0.346-7.488,0.096c-1.858,0.233-2.433,0.989-3.807,1.373
		c-0.284-0.745-0.769-1.639-1.129-2.341c-0.942-1.834-3.662-3.379-5.775-3.517c-5.195-0.339-6.234,0.804-10.266,2.9
		c-0.08-0.61-0.814-2.19-1.185-2.6c-0.526-0.582-1.268-1.154-2.026-1.371c-0.01-0.331,0.262-2.239,0.198-3.935
		c-0.042-1.086-1.034-3.152-1.61-3.957c-0.581-0.813-1.975-1.889-2.686-2.335c-0.725-0.455-2.326-1.109-3.416-1.171
		c-3.487-0.2-5.209,0.391-8.164,2.153c-2.414,1.441-3.739,3.203-5.347,4.924c-0.167-0.112-0.5-0.582-0.732-0.793
		c-0.96-0.87-1.544-1.272-2.886-1.763c-1.166-0.426-3.437-0.916-5.298-0.016c0.322-4.002,0.18-6.392-3.458-9.279
		c-4.748-3.769-9.876-3.125-12.06,3.811c-0.324,1.025-0.521,2.594-0.87,3.505c-0.327-0.925-1.05-2.646-1.973-3.452
		c-1.08-0.968-1.667-1.365-3.026-1.793c-9.268-2.976-15.999,8.386-11.719,14.998c-0.928,0.558-1.028,0.705-1.73,1.49
		c-0.392,0.438-1.059,1.285-1.24,1.746c1.84-8.879-6.071-13.508-6.514-13.719c0.761-3.259-1.285-6.24-5.27-6.214
		c-4.895-0.009-6.725,3.448-8.251,4.085c-1.901,0.236-4.246,0.558-6.127,1.074C21.256,40.986,8.745,53.005,14.313,67.674"/>
	<path fill-rule="evenodd" clip-rule="evenodd" fill="#271E11" d="M23.549,72.757c-0.302,1.874-2.217,5.282-3.594,6.478
		c0.182-0.549,0.498-1.08,0.574-1.771c0.252-2.271-0.365-4.591-2.019-6.054c-0.996-0.882-1.981-1.47-3.278-1.764
		c-2.975-0.675-5.92,0.687-7.764,2.787c-0.363,0.414-0.939,1.076-1.16,1.465c-1.718,3.026-1.998,6.802-0.235,10.296
		c5.367,10.634,19.731,8.418,26.599,0.383c0.414-0.485,0.767-1.075,1.218-1.54c5.611,4.229,16.347,2.758,21.692-6.122
		c0.556-0.91,1.04-2.479,1.403-3.037c0.318,2.252,0.438,3.338,2.343,5.038c0.74,0.659,1.207,0.878,2.129,1.226
		c2.751,1.035,5.778-0.507,7.742-2.228c0.914-0.8,3.13-3.343,3.457-3.58c0.851,1.719,1.263,2.106,2.715,2.681
		c1.024,0.405,3.23,0.293,4.487-0.199c1.691-0.664,2.462-1.25,3.344-2.354c0.558-0.699,1.629-2.455,1.959-3.232
		c0.363,0.32,1.076,2.312,3.583,2.908c1.766,0.419,3.714-0.124,5.355-0.924c2.518-1.229,3.96-2.694,5.617-4.621
		c0.22-0.256,0.516-0.61,0.706-0.89c0.237-0.349,0.566-0.735,0.677-0.982c3.211,3.707,7.744,4.636,12.148,2.509
		c3.932-1.898,6.111-3.928,8.697-7.083c0.354-0.433,0.617-0.866,0.976-1.185c-0.284,0.796-0.804,1.761-1.187,2.618
		c-1.941,4.363-3.066,8.933-4.086,13.636c-0.087,0.403-0.056,0.33-0.398,0.61c-0.783,0.637-1.544,1.352-2.272,2.018
		c-0.503,0.459-1.742,1.773-2.206,2.048c0.144-0.907,0.477-1.779,0.592-2.821c0.707-6.41-7.658-12.018-11.991-6.629
		c-0.296,0.37-1.004,1.997-1.074,2.624c-1.698,0.396-2.559-0.108-5.377,1.002c-1.425,0.562-3.245,1.56-4.338,2.384
		c-2.541,1.915-4.005,4.038-5.448,6.733c-0.914-1.858-1.959-3.396-3.89-4.178c-0.889-0.36-1.628-0.584-2.806-0.634
		c-3.764-0.161-6.306,0.477-9.423,2.666c-3.245,2.278-5.82,6.568-7.774,9.843c-0.239,0.401-0.481,0.768-0.704,1.203
		c-0.636,1.25-2.016,3.723-2.778,4.756c-1.075,1.457-1.522,2.17-1.472,4.013c0.019,0.677,0.307,1.085,0.586,1.649
		c0.529,1.07,1.32,1.455,2.077,1.952c0.652,2.774,2.444,4.579,4.041,5.909c0.817,0.68,1.75,1.096,2.893,1.502
		c3.596,1.279,8.176-0.467,11.122-2.459c1.498-1.013,2.719-2.123,3.933-3.407c0.374-0.394,0.937-1.171,1.093-1.577
		c0.342,0.604,1.164,1.645,3.141,2.598c6.328,2.606,11.213-3.318,11.852-3.665c0.779,0.805,2.445,1.423,3.908,1.437
		c2.373,0.021,2.844-0.213,4.868-1.238c1.561-0.79,2.356-1.744,3.286-2.805l2.581-3.103c0.008-0.005,0.039-0.011,0.045-0.013
		c0.006-0.004,0.031-0.011,0.047-0.01c0.419,0.189-0.322,1.443-0.458,1.771l-3.899,8.748c-0.661,1.444-2.124,3.583-2.335,5.189
		c-0.589,4.473,3.157,6.021,7.096,5.275c1.891-0.358,2.896-0.831,4.503-1.632c2.925-1.462,3.944-3.707,5.228-5.646
		c0.609-0.92,1.209-2.388,1.666-3.419c1.295-2.923,2.424-5.938,3.303-9.039c0.145-0.501,0.014-0.473,0.507-0.781
		c2.701-1.693,4.041-4.085,5.792-6.531c0.092,0.074,1.28,1.404,1.789,1.86c2.197,1.965,4.416,2.643,7.65,2.403
		c3.762-0.278,7.879-3.165,10.375-5.584c2.439-2.363,4.866-5.646,6.335-8.162c0.725-1.241,1.816-3.07,1.514-5.142
		c-0.129-0.889-0.864-1.854-1.519-2.357c-0.587-0.452-1.616-0.788-2.544-0.803c0.077-0.41,0.269-0.779,0.399-1.172
		c0.424-1.264,0.533-2.814,0.425-4.165c-0.112-1.433-0.962-2.979-1.923-3.927c-0.271-0.267-0.766-0.697-0.91-0.979
		c1.582-0.817,3.121-3.182,3.626-4.555c0.749-2.036,0.989-4.033,0.297-6.704c-1.182,0.581-0.985,1.195-3.785,1.448
		c-1.323,0.121-2.353-0.269-3.623-0.331c-2.055-0.102-3.993,0.382-5.724,1.555c-0.581,0.396-0.804,0.807-1.229,1.159
		c-0.339-1.479-0.141-1.812-0.896-3.318c-0.666-1.327-0.748-1.491-1.727-2.334c-1.477-1.273-2.957-1.578-5.47-1.53
		c-3.099,0.06-6.526,1.765-8.681,3.854c-0.467,0.453-1.556,1.764-1.892,1.979c0.252-0.512,0.653-1.344,0.86-2.003
		c0.141-0.447,0.263-2.025,0.037-2.59c-0.797-2.009-1.582-2.189-3.5-2.778c0.039-0.429,0.377-1.164,0.486-1.728
		c0.404-2.084,0.049-4.302-1.11-6.042c-0.554-0.831-2.025-2.02-2.694-2.32c-1.33-0.598-1.823-0.821-3.62-0.828
		c-4.364-0.017-7.647,2.684-10.268,5.569c-0.779,0.859-1.695,2.132-2.377,2.795c-0.379-1.122-0.949-2.131-1.666-2.739
		c-0.713-0.606-1.564-1.105-2.627-1.296c-0.676-0.121-2.704-0.156-3.44,0.048c-1.043,0.29-2.188,1.064-2.976,1.579
		c0.321-1.817,1.208-3.863,0.939-5.969c-0.102-0.793-0.982-2.41-1.441-2.99c-1.198-1.511-2.679-2.786-4.385-3.495
		c-2.179-0.905-4.167-0.372-5.634,1.388c-0.513,0.615-0.928,1.66-1.243,2.509c-0.668,1.809-0.92,3.691-1.356,5.72
		c-0.975,4.548-4.027,11.751-6.439,15.647c-0.228-1.807,0.227-1.441-0.743-3.341c-0.641-1.255-1.358-1.516-2.033-2.333
		c3.48-0.91,6.073-3.642,6.785-7.113c0.743-3.623-0.511-7.826-4.385-8.791c-5.482-1.367-10.6,3.193-10.613,8.804
		c-0.006,2.789,0.303,3.33,1.644,5.474c-1.687,0.851-1.894,0.847-2.918,2.1c-0.651,0.798-1.213,1.93-1.653,2.955l-1.98,4.707
		c-0.21,0.521-0.572,1.197-0.684,1.602c-0.166-0.101-0.053-0.003-0.189-0.156c-0.338-0.38-0.53-1.022-0.805-1.446
		c-0.377-0.582-0.806-0.951-1.1-1.404c1.095-1.504,1.84-2.528,2.532-4.382c2.039-5.468-1.331-11.818-6.456-14.06
		c0.028-0.537,1.084-2.112-0.344-4.228c-0.82-1.212-2.328-1.444-3.735-1.389c-1.386,0.094-3.49,1.331-4.188,1.879
		c-0.583,0.458-1.039,0.833-1.583,1.285c-0.695,0.575-0.851,0.958-1.895,1.072c-2.505,0.454-5.626,0.815-8.39,1.984
		c-10.937,4.63-20.165,16.586-13.668,28.329c0.753,1.096,2.005,2.225,2.851,2.818C20.646,72.3,22.243,72.849,23.549,72.757"/>
	<path fill-rule="evenodd" clip-rule="evenodd" fill="#FFFFFF" d="M110.804,91.315c-0.576,0.533-2.27,3.265-3.293,3.324
		c-1.042-0.661-0.669-2.936-0.457-3.867c0.286-1.26,0.684-2.52,1.023-3.66c0.7-2.348,1.406-4.852,1.998-7.285
		c0.298-1.23,0.59-2.712-0.354-3.976c-0.671-0.897-2.096-1.786-2.942-2.179c-3.547-1.647-3.287,2.712-4.174,4.736
		c-1.582-0.236-2.456-0.397-4.342-0.045c-4.004,0.746-8.002,3.47-9.793,7.132c-0.275,0.562-0.55,1.054-0.836,1.667
		c-1.307,2.803-2.894,5.492-4.754,7.977c-0.339,0.455-0.806,1.052-1.057,1.531c-0.168,0.323-0.214,0.551-0.4,0.842
		c-1.542,2.395-2.71,4.467-5.462,6.517c-3.466,2.58-5.551,1.075-5.378-3.107c0.125-3.073,1.253-6.901,2.475-9.493
		c0.301-0.64,0.568-1.043,0.903-1.625c0.603-1.047,1.829-2.158,3.45-1.667c-0.255,0.362-0.876,0.552-1.204,1.036
		c-0.998,1.467-0.583,3.973,1.217,4.346c2.924,0.605,4.458-2.263,4.974-3.84c0.826-2.521-0.68-5.288-2.618-5.947
		c-2.143-0.729-5.262-0.311-7.551,0.926c-3.498,1.889-6.511,6.516-8.305,9.746c-1.016,1.829-2.051,3.676-3.147,5.463
		c-0.156,0.253-0.251,0.422-0.414,0.679c-0.398,0.632-1.315,1.25-0.953,2.238c0.186,0.505,0.878,0.949,1.283,0.977
		c0.75,0.052,1.036-0.55,1.438-0.833c-0.258,1.203-0.395,2.857,0.311,4.183c0.589,1.107,1.8,2.432,2.562,2.905
		c1.045,0.649,2.056,1.172,3.626,1.207c1.559,0.037,3.215-0.495,4.587-1.16c4.39-2.129,6.979-5.703,9.555-9.361
		c0.313-0.445,0.725-1.278,1.059-1.567c-0.01,0.921-0.274,1.671-0.18,2.819c0.258,3.17,2.498,5.289,6.075,4.441
		c3.371-0.801,5.31-3.471,7.332-5.84c0.244-0.288,0.541-0.723,0.8-0.944c0.251,2.013,0.188,3.196,1.956,3.87
		c3.104,1.184,5.791-1.302,7.542-3.453c0.851-1.044,1.648-2.092,2.479-3.143c0.838-1.057,1.617-2.16,2.346-3.225
		c0.479-0.694,1.775-2.704,2.043-3.417c0.395-1.053-0.414-0.548,0.611-1.965c0.386-0.532,0.775-1.05,1.277-1.546
		c0.498-0.492,2.773-2.343,3.401-2.669c-0.015,0.583-1.255,6.222-1.461,6.629c-0.556-0.026-0.846-0.245-1.573-0.119
		c-0.633,0.109-1.086,0.361-1.487,0.694c-0.702,0.583-1.298,1.557-1.634,2.268c-0.662,1.406,0.002,3.331,1.154,4.438
		c0.425,0.409,0.727,0.549,1.115,0.87c-0.086,0.836-3.873,9.28-4.502,10.654c-0.549,1.199-1.104,2.38-1.686,3.482
		c-0.359,0.684-1.588,2.67-1.328,3.676c0.379,1.465,2.633,1.098,4.086,0.762c3.934-0.908,5.118-2.595,6.543-4.883
		c2.366-3.803,4.15-8.94,5.412-13.43c0.114-0.406,0.133-0.723,0.409-0.927c0.213-0.159,0.632-0.347,0.896-0.517
		c1.998-1.278,3.371-3.098,4.595-5.037l1.614-2.354c0.211-0.291,0.328-0.544,0.535-0.839l1.062-1.604
		c0.294-0.445,0.258-0.285,0.777-0.608c0.276-0.172,0.491-0.47,0.718-0.665c-0.314,0.787-0.296,2.723,0.118,3.772
		c0.399,1.013,1.394,2.165,2.071,2.767c1.619,1.435,3.832,2.191,6.897,1.327c4.954-1.396,8.541-5.944,10.711-8.776
		c0.815-1.064,3.042-4.329,3.23-5.717c0.103-0.765-0.38-0.978-0.984-1.088c-0.76-0.14-1.205,0.364-1.609,0.792
		c-1.99,2.105-2.347,4.806-6.203,7.778c-2.198,1.694-5.16,2.724-5.701-0.993c0.856-0.697,2.206-1.395,3.306-2.297
		c1.018-0.834,1.983-1.737,2.79-2.644c2.706-3.043,7.996-10.056,3.324-13.491c-2.45-1.799-5.464-1.067-7.946,0.595
		c-4.21,2.821-7.663,8.149-9.436,11.621L134,82.656c-0.217,0.437-0.127,0.421-0.676,0.673c-0.709,0.324-0.832,0.912-1.13,1.482
		c-0.892,1.706-1.646,3.225-2.959,4.72c-0.712,0.811-2.036,1.881-3.247,2.417c0.01-0.728,0.412-2.132,0.566-2.92
		c0.197-1.019,0.387-1.924,0.568-2.932l1.567-8.716c0.117-0.636,1.501-1.566,2.041-2.007c2.651-2.162,6.187-5.334,7.841-8.156
		c0.406-0.694,0.871-1.65,1.217-2.447c0.399-0.922,0.693-1.648,0.986-2.67c1.299-4.561,0.202-9.285-5.929-7.875
		c-2.314,0.533-4.103,1.733-5.487,3.09c-2.688,2.633-4.29,5.982-5.617,9.475c-1.327,3.495-2.329,7.38-3.074,11.135
		c-0.309,1.55-0.254,1.292-1.457,2.294c-2.597,2.161-6.121,5.398-7.838,8.165C110.765,89.364,110.394,89.806,110.804,91.315"/>
	<path fill-rule="evenodd" clip-rule="evenodd" fill="#FFFFFF" d="M37.911,45.091l-1.551,2.622c-1.669,2.95-2.64,5.225-3.938,8.484
		c-1.505,3.776-2.933,8.021-4.136,12.041c-1.274,4.261-2.531,8.613-4.797,11.625c-0.989,1.316-2.879,3.527-5.184,4.056
		c-2.753,0.631-4.795-1.488-2.872-4.008c0.569-0.746,1.545-1.597,1.89-2.415c0.428-1.018,0.16-2.574-0.584-3.491
		c-1.292-1.596-4.087-2.081-6.235-0.298c-1.457,1.21-2.611,3.334-2.561,5.671c0.061,2.788,1.414,4.853,3.033,6.354
		c3.563,3.305,8.944,3.053,13.514,1.244c4.867-1.926,7.106-5.972,8.884-9.082l0.767,1.039c0.281,0.347,0.544,0.628,0.844,0.902
		c5.399,4.939,12.306,2.14,16.526-2.569c2.129-2.377,3.062-5.166,3.185-9.357c0.212-7.288-4.267-8.558-4.858-9.307
		c3.08-2.967,5.509-5.28,4.252-10.513c-0.664-2.758-2.022-3.637-3.592-4.735c-2.46-1.721-4.991-1.862-5.339-2.056
		c0.407-0.589,1.41-1.407,1.934-1.975c1.25-1.35,0.958-2.161-0.095-2.05c-2.565,0.271-5.398,3.923-6.368,4.105
		c-0.516,0.097-1.217,0.125-1.783,0.204c-1.229,0.169-2.364,0.415-3.604,0.663c-6.658,1.332-11.226,5.207-14.893,10.087
		c-0.974,1.297-2.023,3.317-2.394,4.989c-0.312,1.406-0.34,4.893-0.011,6.533c0.477,2.372,1.942,4.059,3.29,5.072
		c1.322,0.992,4.414,1.363,5.429-0.69c0.538-1.09-0.069-2.079-1.036-2.337c-1.088-0.292-1.799-0.053-2.854-0.564
		c-1.881-0.913-2.392-3.308-2.215-5.683c0.298-4.042,2.621-6.994,5.573-9.417c1.514-1.242,3.027-2.434,4.947-3.396
		C32.428,46.165,36.553,44.701,37.911,45.091"/>
	<path fill-rule="evenodd" clip-rule="evenodd" fill="#FFFFFF" d="M62.038,62.926c-0.057,0.539-0.753,3.299-0.931,3.992
		c-0.543,2.111-1.775,6.83-0.565,8.799c0.711,1.158,2.108,1.939,3.779,1.553c2.888-0.668,7.93-7.045,9.72-10.013
		c0.159-0.264,0.28-0.449,0.402-0.688c0.592-1.158,0.688-1.674,1.414-2.869c0.295-0.485,0.568-0.954,0.805-1.452
		c0.22-0.458,2.754-5.46,2.834-5.743c-0.323,1.451-0.934,3.107-1.369,4.626c-0.859,3-1.925,6.553-2.496,9.616
		c-0.502,2.696-0.175,3.95,2.854,3.249c1.664-0.384,2.367-1.437,2.911-2.379c0.604-1.051,1.183-2.085,1.778-3.193
		c0.59-1.097,1.082-2.146,1.661-3.182c0.341-0.607,1.985-4.645,2.546-2.225c0.373,1.608-0.021,3.603,0.123,5.305
		c0.207,2.459,1.723,3.193,3.865,2.698c3.009-0.696,5.688-3.823,6.999-5.771c0.201-0.299,0.323-0.555,0.525-0.842
		c0.547-0.78,2.065-3.732,2.606-4.08c0.405-0.259,0.495-0.403,0.806-0.657c-0.568,2.884,0.491,4.963,2.849,6.591
		c1.514,1.046,3.154,1.208,5.301,0.713c3.447-0.798,6.338-3.653,8.111-5.608c0.613-0.677,6.34-7.582,4.759-8.673
		c-1.257-0.869-2.214,0.635-2.805,1.449c-1.66,2.282-2.81,4.991-5.976,6.914c-1.682,1.019-3.871,1.219-4.225-1.125l-0.078-0.464
		c0.311-0.265,1.9-1.197,2.923-2.021c2.741-2.211,4.743-4.747,6.307-7.71c0.874-1.658,2.103-4.736,0.063-6.751
		c-1.69-1.669-4.036-2.099-7.04-0.498c-4.57,2.435-8.459,8.825-10.441,12.789c-0.145,0.29-0.206,0.416-0.391,0.694
		c-0.178,0.269-0.271,0.535-0.431,0.749c-0.228,0.303-0.351,0.205-0.688,0.505c-0.89,0.796-1.337,2.494-2.226,3.538
		c-0.93,1.091-2.349,1.363-2.799-0.585c-0.266-1.151-0.095-2.04-0.25-3.122c-0.355-2.462-2.146-1.47-4.36-0.738
		c0.46-0.539,1.969-2.8,2.814-3.044c0.906-0.264,2.892,1.131,4.756-0.067c1.843-1.185,3.532-6.711,0.049-7.375
		c-1.963-0.374-3.062,0.357-4.345,1.483c-2.625,2.307-5.722,7.151-7.619,9.892c0.006-0.698,0.586-2.6,0.756-3.389
		c0.678-3.152,1.694-7.164,2.463-10.352c0.933-3.87,1.592-4.531-0.625-6.8c-1.018-1.042-3.201-3.054-4.457-1.449
		c-1.208,1.544-1.746,6.234-2.381,8.444c-0.675,2.344-1.401,4.451-2.287,6.546c-1.153,2.726-3.585,8.079-5.299,10.528
		c-0.839,1.202-0.561,1.38-1.832,2.844c-1.116,1.285-1.768,2.691-2.846,4.166c-1.378,1.883-1.654,0.444-1.488-1.243
		c0.123-1.252,0.377-2.439,0.608-3.609c0.268-1.36,1.437-5.954,0.73-7.311c-0.478-0.917-1.821-1.912-2.462-2.428
		c-1.199-0.963-1.695-0.983-3.365,0.067c-1.658,1.042-3.5,7.037-4.535,9.053L56.48,68.25c-0.545,1.313,1.385,2.154,2.331,0.598
		C59.998,66.895,60.897,64.896,62.038,62.926"/>
	<path fill-rule="evenodd" clip-rule="evenodd" fill="#897842" d="M34.795,87.79l-1.698,1.912
		c2.793,11.799,12.957,26.83,27.645,34.137c-0.09-0.27-0.18-0.721,0.262-1.158c2.414-1.866,5.513-4.42,7.852-2.049
		c0.844-0.345,1.906-1.009,3.261-0.473c0.327,0.129,0.627,0.366,0.871,0.456c1.524-3.331,4.372-1.417,4.794,1.113
		c1.041,0.714,0.725,2.065-0.438,3.326c0.933,0.587,1.227,1.153,1.424,1.815l1.759-1.437c-1.868-4.201,3.707-8.264,7.723-5.021
		c2.902-1.553,4.97-1.162,5.869,0.822c1.651-0.556,1.948-1.959,4.006-1.113c1.18-0.76,2.726-1.143,4.102-0.22
		c-0.424-0.882-0.843-1.349-0.836-2.405c0.005-0.875-0.04-1.882,0.02-2.74c0.065-0.941,1.231-3.682,1.633-4.299
		c-0.792-0.037-2.855,0.659-5.908-0.242c-3.961,3.009-10.299,4.467-14.722,1.616c-4.571,5.278-12.608,8.394-19.94,4.612
		c-4.448-2.01-5.245-6.373-6.855-7.799c-3.309-2.928-4.128-7.748-1.386-11.305c3.044-3.95,5.012-8.871,8.462-13.283
		c-3.045,0.033-4.477-0.813-5.963-2.457C48.969,90.092,40.558,90.243,34.795,87.79"/>
	<path fill-rule="evenodd" clip-rule="evenodd" fill="#897442" d="M52.007,32.158c0.106,0.088,0.363,0.287,0.462,0.375
		c1.75,1.583,2.397,3.396,2.216,5.367c2.866,1.526,3.737,3.61,4.035,3.888c1.49-8.04,11.893-12.863,18.413-8.157
		c0.225,0.154,0.379,0.262,0.619,0.436c2.712-10.83,19.111-5.726,19.637,4.979c2.961-0.385,5.114,1.02,6.347,1.774
		c3.699-4.226,10.911-7.688,16.365-5.378c5.201,2.202,7.338,5.734,7.205,11.222c-0.023,0.997,1.225,1.2,1.856,2.572
		c1.02-0.75,2.571-1.526,3.921-1.638c-2.243-4.613-9.085-12.778-15.174-16.708C99.874,17.483,73.191,16.014,52.007,32.158"/>
	<path fill-rule="evenodd" clip-rule="evenodd" fill="#FFFFFF" d="M27.715,92.866c0.422,1.586,3.039,8.073,3.794,9.559
		c4.487,8.555,9.666,14.873,16.825,20.494c2.656,2.215,5.422,3.9,8.446,5.564c18.253,9.77,38.718,9.822,57.36,0.436
		c12.301-6.559,20.385-15.078,26.404-27.361c-0.943-0.011-2.389-0.358-2.899-0.66c-3.347,6.473-6.366,10.696-11.771,16.029
		c-3.541,3.479-5.695,4.851-9.963,7.665c-8.324,5.204-18.034,7.921-28.006,8.382c-5.986,0.277-11.586-0.572-17.008-1.93
		c-4.826-1.146-11.172-4.033-14.75-6.257c-2.759-1.716-3.9-2.435-6.558-4.488c-7.803-6.028-16.063-17.366-19.152-28.71
		L27.715,92.866z"/>
	<path fill-rule="evenodd" clip-rule="evenodd" fill="#897842" d="M131.431,115.301c-7.73,8.786-15.918,13.679-26.752,17.524
		c-5.461,1.7-10.833,2.776-16.395,3.03c-8.567,0.391-16.936-1.17-24.717-4.258c-13.453-5.34-25.039-15.426-32.059-29.174
		c-0.756-1.485-3.451-8.205-3.794-9.559c-0.385,0.194-2.051,0.844-2.307,1.03c8.527,31.479,44.519,51.287,75.879,42.641
		c18.887-5.206,34.22-17.763,42.098-35.017c-0.38-0.012-1.419,0.115-2.841,0.037C140.357,101.771,137.599,108.395,131.431,115.301"
		/>
	<path fill-rule="evenodd" clip-rule="evenodd" fill="#FFFFFF" d="M49.153,30.532c12.088-10.547,28.853-14.563,44.537-12.67
		c7.263,1.058,14,3.348,20.083,6.668c9.406,5.133,17.223,12.798,22.742,22.729c0.359-0.018,2.368-0.113,3.449,0.223
		c-0.156-0.59-1.305-2.612-1.676-3.222c-7.719-12.709-18.277-21.219-32.158-26.384c-9.272-3.45-20.188-4.537-32.199-2.317
		c-7.563,1.713-15.087,4.568-21.529,8.946c-1.64,1.114-4.041,2.764-5.488,4.077c-0.482,0.436-2.166,1.725-2.398,2.207
		C45.859,30.398,47.67,30.444,49.153,30.532"/>
	<path fill-rule="evenodd" clip-rule="evenodd" fill="#897442" d="M44.517,30.789c4.254-4.156,9.18-7.456,14.252-9.974
		c10.465-5.195,22.538-7.3,34.321-5.963c3.816,0.34,9.682,1.928,13.041,3.024c5.74,2.136,11.943,5.373,16.684,9.116
		c2.284,1.861,5.502,4.587,7.502,6.81c3.285,3.649,5.302,6.311,7.857,10.519c0.371,0.61,1.439,2.479,1.732,3.15
		c0.826,0.144,2.703,0.825,3.396,1.146c-8.722-19.886-29.237-33.924-49.563-36.272c-17.278-1.996-33.508,3.037-45.152,11.67
		c-2.591,1.92-6.46,5.097-8.629,7.587c-0.564,0.648-2.414,2.515-2.812,3.175c1.253,0.269,1.827-0.81,2.254-1.124
		C41.097,32.213,43.068,31.347,44.517,30.789"/>
	<path fill-rule="evenodd" clip-rule="evenodd" fill="#272112" d="M37.087,66.97c0.974-0.441,2.606-2.151,3.964-1.979
		c0.821,0.104,1.004,1.148,0.623,1.752c-0.373,0.589-1.209,0.785-1.855,1.18c-2.017,1.234-4.463,4.164-4.194,6.672
		c0.22,2.055,1.282,2.604,2.711,3.005c1.609,0.453,3.068,0.146,4.329-1.011c5.155-4.733,3.824-15.221-0.023-15.035
		c-1.84,0.09-3.521,0.856-3.782-1.383c-0.22-1.875,2.212-2.274,3.387-2.601c1.984-0.552,2.897-0.892,3.788-2.256
		c1.268-1.939,1.834-6.237-0.313-8.446c-1.047-1.077-3.424-1.705-3.701-1.535c-0.384,0.236-2.048,3.692-2.345,4.682
		c-1.001,3.357-1.396,9.921-2.099,14.093C37.436,64.943,37.13,66.186,37.087,66.97"/>
	<path fill-rule="evenodd" clip-rule="evenodd" fill="#FFFFFF" d="M68.79,38.945c-5.15,2.153-4.903,12.208,1.926,9.262
		c4.385-1.893,4.321-8.207,2.097-9.282C71.763,38.418,70.121,38.388,68.79,38.945"/>
	<path fill-rule="evenodd" clip-rule="evenodd" fill="#272112" d="M99.166,83.39c-1.984,1.168-6.32,10.623-5.942,13.312
		c0.364,2.595,3.263,1.35,6.293-5.873c0.508-1.209,0.958-2.648,1.246-4.068C101.113,85.032,100.871,82.388,99.166,83.39"/>
	<path fill-rule="evenodd" clip-rule="evenodd" fill="#FFFFFF" d="M92.353,125.058c0.804,0.144,1.386-0.418,2.088-0.696
		l-1.302,2.439c-0.298,0.637-1.094,2.115-0.948,2.803c0.878,0.148,1.874-0.65,2.107-1.22c0.624-1.517,0.691-1.864,1.456-3.392
		c0.298-0.592,0.797-1.668,1.133-2.184c0.265-0.407,0.573-0.693,0.38-1.254c-0.853-0.22-0.491,0.234-2.002,1.18
		c-0.782,0.49-1.775,0.732-2.559,1.164c-0.007-1.271-0.086-2.143-1.138-2.463c-1.012-0.307-1.968,0.252-2.665,0.842
		c-1.128,0.955-2.138,2.859-2.493,4.391c-0.532,2.293,0.729,4.213,3.061,2.533C90.853,128.207,91.901,126.533,92.353,125.058"/>
	<path fill-rule="evenodd" clip-rule="evenodd" fill="#FFFFFF" d="M62.625,123.605c0.077,0.337,0.187,0.345,0.372,0.491
		c-0.342,1.225,0.766,3.953,4.335,1.249c-0.407,2.353,2.275,2.844,3.126,1.366c0.169-0.294,0.058-0.233,0.309-0.379
		c0.353-0.205,0.552-0.122,0.873-0.449c0.279-0.285,0.232-0.393,0.623-0.659c-0.124,0.551-0.542,1.014-0.719,1.69
		c-0.287,1.088,0.535,2.234,3.007,0.473c0.279-0.198,0.493-0.373,0.757-0.619c0.366-0.343,0.511-0.365,0.373-0.914
		c-0.81,0.022-1.075,0.936-2.008,1.072c-0.173-0.551,0.191-0.965,0.619-1.735c0.334-0.601,0.683-1.038,0.912-1.616
		c0.673-0.135,1.253,0.281,1.41-0.506c-0.291-0.243-0.356-0.178-0.804-0.297c0.07-0.814,0.671-0.796-0.295-2.278
		c-0.553,0.173-0.837,0.879-1.078,1.271c-0.789,1.285-0.875,0.35-1.335,0.877c-0.304,0.376-0.078,0.424,0.117,0.703
		c-0.62,0.582-1.565,1.846-2.304,2.24c-0.12-0.772-0.481-1.746-0.316-2.371c0.514-0.15,0.963,0.285,1.242-0.334
		c0.251-0.555-0.153-1.011-0.615-1.056c-1.442-0.142-3.253,1.942-4.401,3.004c-0.522,0.482-2.131,1.34-2.17-0.028
		c1.148-0.266,1.675-0.368,2.434-1.135c1.331-1.345,0.103-3.271-2.531-1.592C64.287,122.244,62.763,123.428,62.625,123.605"/>
	<path fill-rule="evenodd" clip-rule="evenodd" fill="#7C6737" d="M26.624,63.013c0.236-0.257,0.262-0.454,0.362-0.754l0.848-2.519
		c0.818-2.493,2.134-5.643,3.17-8.107c0.227-0.54,0.556-1.112,0.657-1.609c-1.534,0.776-4.074,2.958-5.358,4.226
		c-1.483,1.465-2.556,3.617-2.732,5.97C23.304,63.754,26.24,63.067,26.624,63.013"/>
	<path fill-rule="evenodd" clip-rule="evenodd" fill="#77BF43" d="M146.009,63.38c0.207-0.217,0.487-0.987,0.964-1.552
		c1.513-1.792,3.231-1.731,4.989-1.897l1.153-0.11c0.018,0.003,0.051,0.008,0.074,0.02c-1.7,0.995-3.972,0.112-5.73,2.213
		c-0.343,0.409-1.064,1.737-1.093,2.301c-0.024,0.478,0.521,0.777,0.847,0.911c0.322,0.133,1.044,0.059,1.483,0.007
		c3.032-0.354,4.854-2.907,6.115-5.039c0.293-0.495,0.988-1.854,1.091-2.341c-2.901,2.023-7.623-1.575-9.982,3.514
		C145.689,61.905,145.453,62.889,146.009,63.38"/>
	<path fill-rule="evenodd" clip-rule="evenodd" fill="#272112" d="M129.807,71.63c0.456-0.233,1.078-0.814,1.472-1.154
		c1.683-1.446,3.789-5.712,4.31-7.707c0.226-0.863,0.569-3.413-0.468-4.056c-0.516-0.32-1.313,0.079-1.735,0.493
		c-1.132,1.106-1.585,3.462-1.991,5.011c-0.314,1.201-0.59,2.391-0.837,3.623c-0.134,0.66-0.269,1.229-0.392,1.86
		C130.044,70.324,129.826,70.989,129.807,71.63"/>
	<path fill-rule="evenodd" clip-rule="evenodd" fill="#272112" d="M111.598,71.399c1.428,1.316,3.239,3.125,3.243,6.611
		c0.811-0.578,1.03-0.938,1.539-1.381c0.226-1.913,1.158-5.418,1.82-7.594c0.139-0.454,0.365-0.952,0.418-1.381
		c-0.441,0.232-1.004,0.744-1.521,1.09c-0.553,0.37-1.1,0.661-1.697,0.959c-0.615,0.307-1.205,0.606-1.818,0.902
		C112.916,70.928,112.246,71.106,111.598,71.399"/>
	<path fill-rule="evenodd" clip-rule="evenodd" fill="#FFFFFF" d="M82.074,124.383c1.502,0.3,0.924-2.914,2.537-2.201
		c0.96,1.184-1.179,3.28-1.864,3.912c-0.779,0.721-3.658,2.246-2.954,3.297c0.336,0.228,0.823-0.845,1.187-0.867
		c0.709-0.045,1.114,1.828,2.903,1c0.562-0.26,1.766-1.605,1.805-1.992c0.093-0.923-0.996,0.166-1.411,0.216
		c-0.478,0.058-0.857-0.37-0.982-0.925c1.62-1.139,4.67-2.749,3.497-5.127C85.687,119.453,81.1,122.622,82.074,124.383"/>
	<path fill-rule="evenodd" clip-rule="evenodd" fill="#272112" d="M148.641,71.53c-1.125,0.745-3.299,5.208-3.696,6.624
		c-0.228,0.813-0.296,2.469,1.085,1.776c0.969-0.487,2.583-3.26,3.065-4.033C150.353,73.878,150.2,70.499,148.641,71.53"/>
	<path fill-rule="evenodd" clip-rule="evenodd" fill="#897442" d="M126.964,111.29c2.216-2.289,6.592-8.818,7.762-11.507
		c-0.381-0.187-0.625-0.341-1.021-0.509c-0.418,0.335-1.485,1.724-2.364,2.522c-0.532,0.481-1.046,0.604-1.254,1.249
		c-0.197,0.61-0.35,1.141-0.538,1.691c-0.397,1.164-0.758,2.168-1.21,3.314C128.096,108.666,127.031,110.903,126.964,111.29"/>
	<path fill-rule="evenodd" clip-rule="evenodd" fill="#FFFFFF" d="M99.525,122.463c0.498,0.939-0.09,1.563-0.496,2.074
		c-0.417,0.526-0.902,1.095-1.526,1.625c-0.554,0.471-3.602,2.603-2.681,3.212c0.613,0.051,0.591-1.146,1.436-0.937
		c0.56,0.138,1.592,1.952,3.952-1.052c0.236-0.302,0.441-0.396,0.356-0.922c-0.604,0.114-1.959,1.595-2.329,0.069
		c0.979-0.611,2.562-1.786,3.167-2.546c0.988-1.239,0.513-2.94-1.552-2.519c-1.623,0.333-2.99,1.783-3.029,2.647
		c-0.023,0.504,0.218,0.64,0.649,0.386C98.479,123.911,97.916,122.231,99.525,122.463"/>
	<path fill-rule="evenodd" clip-rule="evenodd" fill="#272112" d="M115.229,45.723c-1.146,0.784-3.112,4.813-3.456,6.086
		c-0.201,0.744-0.274,2.322,1.014,1.657c0.871-0.451,3.381-3.91,3.565-5.994C116.41,46.813,116.261,45.016,115.229,45.723"/>
	<path fill-rule="evenodd" clip-rule="evenodd" fill="#897442" d="M102.283,125.797c0.208,0.608,0.288,1.04,0.096,1.541
		c1.428-0.344,4.534-1.531,7.359-2.913c-1.263,0.017-3.871-0.556-6.004-2.239C103.921,123.752,103.272,124.791,102.283,125.797"/>
	<path fill-rule="evenodd" clip-rule="evenodd" fill="#897442" d="M73.703,101.836c0.998-0.807,1.876-1.395,2.628-2.344
		c0.498-0.629,1.766-2.31,1.897-2.893c-2.991-0.036-2.721-0.838-3.47-0.824C74.45,96.782,73.356,100.858,73.703,101.836"/>
	<path fill-rule="evenodd" clip-rule="evenodd" fill="#272112" d="M88.106,128.975c1.158-0.042,2.238-2.105,2.649-2.959
		c0.179-0.373,1.853-3.516,0.721-3.818c-0.85-0.227-2.277,2.48-2.512,2.933C88.617,125.797,87.359,128.057,88.106,128.975"/>
	<path fill-rule="evenodd" clip-rule="evenodd" fill="#897442" d="M42.737,69.91c-0.957,0.192-2.306,1.417-2.758,1.953
		c-0.298,0.355-2.015,2.341-0.94,2.731c1.673,0.608,2.891-1.932,3.28-3.148C42.457,71.015,42.601,70.276,42.737,69.91"/>
	<path fill-rule="evenodd" clip-rule="evenodd" fill="#FFFFFF" d="M75.648,126.951c-1.283,1.069-0.441,2.911,0.72,2.041
		C77.579,128.084,76.802,125.989,75.648,126.951"/>
	<path fill-rule="evenodd" clip-rule="evenodd" fill="#272112" d="M66.25,122.531c-0.203-0.185-0.572,0.007-1.137,0.206
		c-0.565,0.199-0.75,0.581-0.721,0.653c0.029,0.073,0.185,0.226,0.882-0.029C65.97,123.107,66.453,122.715,66.25,122.531"/>
	<path fill-rule="evenodd" clip-rule="evenodd" fill="#272112" d="M68.324,125.405c0.458-0.107,0.732-0.094,1.281-0.105
		c-0.213,0.313-0.572,1.172-1.029,1.277c-0.456,0.105-0.753-0.041-0.843-0.431C67.644,125.756,67.868,125.509,68.324,125.405"/>
	<path fill-rule="evenodd" clip-rule="evenodd" fill="#272112" d="M67.599,125.09c0.705-0.731,1.139-0.617,1.898-0.51
		c-0.012-0.681-0.035-0.799,0.17-1.458C69.189,123.26,68.55,124.074,67.599,125.09"/>
	<path fill-rule="evenodd" clip-rule="evenodd" fill="#897442" d="M42.775,48.643c2.078-0.549,1.054,6.425-1.611,6.555
		C41.427,52.928,42.412,49.784,42.775,48.643"/>
	<path fill-rule="evenodd" clip-rule="evenodd" fill="#272112" d="M28.961,53.489c-3.129,3.37-3.255,4.333-3.565,5.364
		c-0.417,1.395,0.102,2.061,0.747,1.803C26.496,58.455,28.19,54.796,28.961,53.489"/>
	<path fill="#77BF43" d="M105.963,0.74c-0.387-0.102-0.75-0.138-1.092-0.108c-0.34,0.031-0.655,0.118-0.942,0.259
		c-0.288,0.145-0.545,0.33-0.777,0.563c-0.229,0.233-0.427,0.501-0.589,0.802c-0.166,0.304-0.294,0.628-0.389,0.979
		c-0.12,0.44-0.176,0.856-0.169,1.248c0.005,0.391,0.083,0.749,0.234,1.074c0.148,0.325,0.383,0.606,0.696,0.843
		c0.314,0.24,0.723,0.428,1.222,0.563c0.277,0.073,0.541,0.113,0.788,0.125c0.246,0.011,0.467,0.003,0.667-0.023
		c0.198-0.025,0.366-0.06,0.503-0.1c0.136-0.041,0.235-0.075,0.293-0.106l-0.191-1.074c-0.113,0.043-0.25,0.086-0.417,0.128
		c-0.165,0.04-0.347,0.065-0.553,0.07c-0.204,0.006-0.423-0.018-0.655-0.078c-0.331-0.091-0.585-0.228-0.76-0.408
		c-0.174-0.179-0.283-0.387-0.33-0.624c-0.046-0.236-0.042-0.486,0.013-0.748c0.234,0.061,0.481,0.114,0.743,0.161
		c0.26,0.045,0.521,0.072,0.788,0.083c0.267,0.01,0.525-0.004,0.777-0.045c0.25-0.04,0.484-0.116,0.698-0.226
		c0.215-0.11,0.403-0.264,0.563-0.459c0.159-0.197,0.279-0.447,0.362-0.748c0.092-0.35,0.091-0.67-0.003-0.956
		c-0.094-0.287-0.266-0.53-0.52-0.733C106.671,1,106.351,0.843,105.963,0.74 M106.143,2.569c-0.05,0.181-0.137,0.323-0.26,0.428
		c-0.122,0.104-0.27,0.18-0.44,0.223c-0.172,0.044-0.357,0.066-0.553,0.067c-0.197-0.002-0.395-0.017-0.594-0.048
		c-0.197-0.031-0.385-0.069-0.562-0.114c0.066-0.218,0.16-0.425,0.275-0.619c0.115-0.194,0.252-0.362,0.412-0.502
		c0.159-0.139,0.339-0.235,0.538-0.292c0.2-0.055,0.419-0.052,0.655,0.009c0.216,0.058,0.372,0.16,0.468,0.306
		C106.178,2.168,106.2,2.351,106.143,2.569 M110.218,7.637c-0.342-0.12-0.595-0.3-0.754-0.545c-0.162-0.245-0.244-0.54-0.244-0.884
		c0-0.344,0.075-0.727,0.221-1.147c0.221-0.643,0.506-1.091,0.856-1.347c0.349-0.253,0.756-0.302,1.218-0.146
		c0.086,0.03,0.164,0.063,0.232,0.099c0.068,0.037,0.133,0.078,0.194,0.125c0.091,0.067,0.14,0.137,0.151,0.209
		c0.01,0.07-0.004,0.16-0.045,0.267l-0.19,0.555l1.089,0.284l0.517-1.5c-0.221-0.246-0.464-0.458-0.727-0.642
		c-0.263-0.181-0.566-0.333-0.91-0.451c-0.263-0.092-0.536-0.148-0.821-0.168c-0.286-0.02-0.572,0.005-0.859,0.076
		c-0.284,0.071-0.563,0.197-0.83,0.378c-0.265,0.184-0.512,0.432-0.737,0.746c-0.226,0.314-0.42,0.705-0.582,1.172
		c-0.22,0.641-0.298,1.22-0.237,1.738c0.061,0.518,0.252,0.96,0.574,1.329c0.322,0.371,0.768,0.653,1.334,0.85
		c0.285,0.096,0.563,0.157,0.832,0.184c0.268,0.026,0.52,0.024,0.758-0.006c0.239-0.032,0.455-0.082,0.647-0.155l-0.19-1.06
		c-0.294,0.092-0.561,0.141-0.801,0.148C110.671,7.751,110.439,7.715,110.218,7.637 M115.318,9.857
		c-0.213-0.098-0.373-0.217-0.482-0.364c-0.107-0.146-0.178-0.311-0.203-0.492c-0.027-0.18-0.022-0.374,0.01-0.579
		c0.036-0.205,0.091-0.414,0.165-0.625c0.075-0.214,0.159-0.426,0.253-0.633c0.158-0.361,0.342-0.658,0.547-0.894
		c0.207-0.235,0.438-0.392,0.688-0.464c0.251-0.074,0.524-0.047,0.816,0.081c0.296,0.134,0.495,0.321,0.597,0.56
		c0.103,0.239,0.127,0.528,0.066,0.861c-0.058,0.335-0.181,0.71-0.368,1.128c-0.17,0.389-0.364,0.712-0.576,0.97
		c-0.215,0.256-0.446,0.428-0.698,0.513C115.877,10.003,115.607,9.983,115.318,9.857 M113.642,6.72
		c-0.297,0.674-0.44,1.275-0.434,1.806c0.008,0.531,0.146,0.987,0.42,1.367c0.275,0.38,0.661,0.682,1.163,0.905
		c0.369,0.165,0.742,0.258,1.121,0.274c0.376,0.019,0.743-0.045,1.101-0.193c0.357-0.148,0.692-0.386,1.004-0.719
		c0.313-0.332,0.588-0.763,0.828-1.297c0.188-0.426,0.309-0.811,0.363-1.156c0.053-0.343,0.056-0.649,0.01-0.919
		c-0.049-0.271-0.131-0.506-0.25-0.711c-0.117-0.205-0.258-0.38-0.414-0.528s-0.318-0.271-0.482-0.371
		c-0.164-0.1-0.316-0.18-0.457-0.241c-0.23-0.104-0.484-0.182-0.754-0.233c-0.272-0.051-0.554-0.06-0.844-0.028
		c-0.289,0.034-0.575,0.122-0.861,0.269c-0.285,0.147-0.557,0.362-0.816,0.652C114.083,5.883,113.849,6.258,113.642,6.72
		 M119.73,9.644l2.797,1.55l0.543-0.982l-2.796-1.549L119.73,9.644z M123.127,13.312c-0.052,0.085-0.104,0.146-0.155,0.18
		c-0.053,0.035-0.106,0.05-0.164,0.043s-0.123-0.026-0.191-0.061l-0.365-0.176l-0.477,0.795l2.771,1.666l0.504-0.836l-0.854-0.57
		l2.106-3.503l1.547,0.93l0.528-0.879l-1.548-0.93l0.295-0.491c0.169-0.29,0.355-0.475,0.555-0.552
		c0.199-0.077,0.43-0.038,0.689,0.118c0.098,0.06,0.198,0.134,0.3,0.225c0.103,0.091,0.199,0.19,0.291,0.298
		c0.095,0.109,0.174,0.221,0.245,0.334l0.807-0.654c-0.082-0.142-0.188-0.289-0.322-0.443c-0.135-0.157-0.28-0.304-0.44-0.444
		c-0.158-0.139-0.315-0.257-0.472-0.353c-0.323-0.191-0.617-0.316-0.881-0.371c-0.264-0.054-0.503-0.056-0.715-0.004
		c-0.21,0.051-0.4,0.138-0.567,0.261c-0.167,0.122-0.315,0.266-0.445,0.43c-0.131,0.164-0.245,0.33-0.345,0.5l-0.238,0.397
		l-0.9-0.541l-0.528,0.879l0.899,0.541L123.127,13.312z M127.072,15.805c-0.059,0.079-0.119,0.134-0.172,0.162
		c-0.057,0.03-0.111,0.039-0.168,0.027c-0.058-0.013-0.119-0.039-0.184-0.081l-0.346-0.213l-0.557,0.741l2.611,1.968l0.58-0.77
		l-0.818-0.677l1.704-2.261c0.145-0.189,0.31-0.33,0.495-0.421c0.185-0.093,0.376-0.131,0.57-0.116
		c0.199,0.014,0.385,0.088,0.563,0.22c0.053,0.04,0.098,0.078,0.131,0.113c0.035,0.038,0.068,0.083,0.096,0.133
		c0.022,0.048,0.025,0.099,0.008,0.152c-0.019,0.052-0.05,0.107-0.094,0.166l-0.338,0.448l0.957,0.614l1.096-1.451
		c-0.102-0.198-0.215-0.371-0.344-0.518c-0.127-0.15-0.271-0.283-0.432-0.401c-0.217-0.161-0.445-0.271-0.683-0.33
		c-0.241-0.059-0.478-0.074-0.712-0.042c-0.234,0.03-0.45,0.1-0.649,0.206l0.551-0.73l-1.647-1.242l-0.596,0.789l0.389,0.338
		c0.088,0.072,0.135,0.142,0.139,0.214c0.004,0.069-0.034,0.158-0.116,0.262L127.072,15.805z M135.633,16.489l-1.697-1.375
		l-0.638,0.788l0.316,0.287c0.09,0.07,0.137,0.139,0.141,0.21c0,0.069-0.041,0.156-0.126,0.257l-2.136,2.636
		c-0.059,0.075-0.117,0.125-0.174,0.148c-0.057,0.025-0.113,0.031-0.169,0.016c-0.058-0.015-0.114-0.043-0.177-0.083l-0.336-0.224
		l-0.584,0.72l2.258,1.828l0.613-0.759l-0.518-0.466L135.633,16.489z M135.308,14.042c-0.107,0.135-0.174,0.278-0.199,0.429
		c-0.025,0.152-0.008,0.301,0.052,0.447c0.059,0.147,0.163,0.281,0.308,0.4c0.143,0.114,0.295,0.188,0.453,0.215
		c0.155,0.03,0.308,0.017,0.454-0.037c0.144-0.053,0.272-0.146,0.382-0.279c0.107-0.136,0.174-0.281,0.199-0.438
		c0.023-0.156,0.01-0.31-0.048-0.458c-0.059-0.151-0.157-0.282-0.296-0.397c-0.15-0.12-0.306-0.193-0.465-0.218
		c-0.16-0.027-0.313-0.009-0.457,0.048C135.544,13.813,135.417,13.908,135.308,14.042 M139.541,19.792
		c-0.284-0.281-0.581-0.495-0.891-0.639c-0.311-0.144-0.627-0.225-0.946-0.247c-0.321-0.019-0.638,0.013-0.954,0.1
		c-0.314,0.087-0.619,0.219-0.911,0.399c-0.294,0.18-0.569,0.396-0.827,0.654c-0.324,0.321-0.582,0.653-0.771,0.995
		c-0.191,0.341-0.302,0.69-0.334,1.047c-0.032,0.355,0.029,0.716,0.181,1.079c0.153,0.365,0.413,0.732,0.777,1.099
		c0.204,0.201,0.412,0.368,0.619,0.502c0.207,0.132,0.402,0.236,0.59,0.313c0.184,0.078,0.347,0.131,0.484,0.165
		c0.141,0.033,0.242,0.052,0.309,0.055l0.371-1.026c-0.12-0.02-0.261-0.051-0.424-0.096c-0.164-0.048-0.334-0.119-0.516-0.215
		c-0.18-0.097-0.357-0.228-0.528-0.396c-0.241-0.245-0.392-0.491-0.454-0.733c-0.063-0.243-0.053-0.478,0.026-0.705
		c0.078-0.228,0.207-0.442,0.386-0.641c0.172,0.169,0.359,0.339,0.562,0.51c0.202,0.168,0.415,0.323,0.642,0.466
		c0.227,0.142,0.457,0.258,0.693,0.349c0.238,0.09,0.479,0.141,0.719,0.154c0.241,0.011,0.482-0.028,0.717-0.117
		c0.236-0.092,0.467-0.247,0.688-0.465c0.256-0.257,0.414-0.535,0.477-0.83s0.034-0.593-0.084-0.896
		C140.025,20.371,139.824,20.076,139.541,19.792 M138.782,21.466c-0.134,0.131-0.28,0.211-0.438,0.24s-0.324,0.021-0.493-0.027
		c-0.171-0.047-0.343-0.121-0.512-0.219c-0.17-0.101-0.333-0.213-0.491-0.338c-0.154-0.127-0.299-0.253-0.43-0.381
		c0.166-0.156,0.352-0.287,0.549-0.398c0.196-0.111,0.398-0.188,0.607-0.229c0.207-0.041,0.412-0.034,0.611,0.016
		c0.201,0.051,0.389,0.165,0.563,0.336c0.157,0.157,0.242,0.322,0.252,0.497C139.013,21.137,138.939,21.305,138.782,21.466
		 M141.107,22.895l0.301,0.417c0.067,0.086,0.094,0.166,0.08,0.241c-0.014,0.073-0.071,0.153-0.174,0.236l-2.588,2.172
		c-0.078,0.064-0.146,0.104-0.207,0.119c-0.061,0.017-0.115,0.013-0.168-0.011c-0.053-0.025-0.107-0.065-0.162-0.121l-0.286-0.285
		l-0.711,0.596l1.866,2.225l0.748-0.628l-0.419-0.557l2.262-1.897c0.123-0.104,0.259-0.18,0.406-0.231
		c0.149-0.054,0.302-0.075,0.458-0.069c0.158,0.009,0.313,0.051,0.463,0.126c0.153,0.077,0.294,0.191,0.426,0.345
		c0.175,0.211,0.269,0.406,0.279,0.585c0.01,0.18-0.042,0.353-0.158,0.521c-0.117,0.167-0.278,0.336-0.488,0.507l-1.926,1.616
		c-0.076,0.064-0.145,0.106-0.205,0.119c-0.061,0.017-0.115,0.014-0.168-0.011s-0.107-0.064-0.162-0.119l-0.286-0.286l-0.711,0.596
		l1.866,2.225l0.748-0.627l-0.419-0.557l2.439-2.047c0.366-0.31,0.62-0.624,0.763-0.942c0.144-0.319,0.18-0.64,0.113-0.96
		c-0.069-0.319-0.233-0.636-0.496-0.949c-0.174-0.207-0.371-0.379-0.589-0.517c-0.219-0.141-0.449-0.243-0.692-0.307
		c-0.243-0.061-0.489-0.083-0.738-0.063l0.608-0.51l-1.325-1.58L141.107,22.895z M148.866,30.665
		c-0.275-0.389-0.586-0.688-0.935-0.896c-0.347-0.207-0.721-0.325-1.119-0.358c-0.397-0.032-0.808,0.023-1.233,0.159
		c-0.424,0.139-0.854,0.357-1.28,0.657c-0.252,0.176-0.483,0.367-0.693,0.574c-0.209,0.209-0.384,0.431-0.525,0.668
		c-0.141,0.238-0.235,0.489-0.285,0.756c-0.048,0.265-0.034,0.542,0.036,0.833c0.072,0.291,0.216,0.59,0.432,0.903
		c0.13,0.185,0.278,0.342,0.448,0.474s0.356,0.229,0.563,0.295c0.209,0.065,0.432,0.093,0.67,0.079l0.012,0.038l-0.591,0.413
		l1.135,1.619l0.799-0.56l-0.225-0.364c-0.06-0.083-0.084-0.157-0.077-0.222c0.008-0.063,0.053-0.125,0.132-0.189l6.079-4.256
		l-1.302-1.858l-0.789,0.552l0.271,0.451c0.056,0.087,0.08,0.166,0.075,0.235c-0.006,0.07-0.051,0.134-0.134,0.192l-1.01,0.708
		c-0.045-0.138-0.1-0.281-0.169-0.426S148.987,30.839,148.866,30.665 M145.821,34.018c-0.149,0.102-0.313,0.157-0.489,0.162
		c-0.179,0.005-0.355-0.038-0.527-0.127c-0.171-0.091-0.325-0.23-0.458-0.417c-0.148-0.214-0.228-0.424-0.237-0.626
		s0.033-0.396,0.131-0.586c0.1-0.188,0.237-0.369,0.417-0.542c0.179-0.174,0.384-0.342,0.613-0.501
		c0.245-0.174,0.497-0.318,0.751-0.43c0.255-0.114,0.506-0.182,0.751-0.208c0.245-0.023,0.475,0.011,0.691,0.101
		c0.217,0.092,0.408,0.255,0.575,0.491c0.108,0.157,0.191,0.311,0.249,0.463c0.06,0.152,0.1,0.288,0.123,0.409L145.821,34.018z
		 M154.408,35.076l-1.092-1.891l-0.877,0.506l0.193,0.382c0.042,0.083,0.059,0.158,0.05,0.227c-0.008,0.067-0.06,0.128-0.152,0.184
		l-5.209,3.008c-0.083,0.047-0.156,0.073-0.218,0.075c-0.062,0.003-0.116-0.012-0.164-0.046c-0.047-0.034-0.091-0.081-0.135-0.141
		l-0.232-0.33l-0.804,0.463l1.453,2.515l0.845-0.488l-0.315-0.62L154.408,35.076z M149.937,44.614
		c-0.33,0.171-0.64,0.269-0.926,0.294c-0.288,0.025-0.548-0.031-0.781-0.172c-0.234-0.141-0.436-0.379-0.606-0.709
		c-0.081-0.162-0.146-0.311-0.193-0.445c-0.046-0.134-0.077-0.262-0.091-0.383c-0.012-0.114,0.002-0.207,0.045-0.274
		c0.044-0.067,0.116-0.126,0.219-0.176l0.522-0.266l-0.613-0.989L146,42.265c0.001,0.146,0.021,0.308,0.06,0.493
		c0.037,0.184,0.089,0.375,0.153,0.579c0.063,0.201,0.137,0.401,0.217,0.599c0.08,0.197,0.166,0.384,0.253,0.556
		c0.274,0.543,0.593,0.956,0.958,1.242c0.364,0.287,0.785,0.431,1.258,0.436c0.472,0.004,1.007-0.145,1.604-0.446l5.262-2.682
		l-0.975-1.913l-0.892,0.454l0.155,0.359c0.053,0.1,0.065,0.186,0.036,0.25c-0.03,0.066-0.105,0.129-0.224,0.188l-1.969,1.002
		c-0.191,0.098-0.39,0.145-0.598,0.138c-0.207-0.006-0.403-0.07-0.591-0.191c-0.188-0.122-0.348-0.31-0.48-0.562
		c-0.114-0.229-0.152-0.429-0.109-0.596c0.042-0.168,0.141-0.316,0.295-0.442c0.153-0.129,0.344-0.248,0.568-0.359l3.12-1.589
		l-0.975-1.914l-0.892,0.454l0.155,0.359c0.044,0.094,0.055,0.175,0.033,0.241c-0.02,0.068-0.087,0.128-0.199,0.186l-2.186,1.114
		c-0.638,0.327-1.037,0.713-1.198,1.158c-0.162,0.445-0.104,0.941,0.177,1.484c0.123,0.242,0.274,0.454,0.451,0.64
		c0.178,0.188,0.377,0.341,0.594,0.46c0.221,0.118,0.453,0.194,0.7,0.23L149.937,44.614z"/>
	<path fill="#FFFFFF" d="M29.504,136c0.542,0.489,1.067,0.811,1.573,0.965c0.508,0.152,1.013,0.14,1.515-0.035
		c0.499-0.175,1.009-0.51,1.532-1.006c0.193-0.184,0.38-0.373,0.562-0.574c0.18-0.201,0.357-0.398,0.528-0.592l3.636-4.037
		c-0.1-0.214-0.219-0.426-0.353-0.637c-0.133-0.214-0.276-0.417-0.428-0.613c-0.148-0.195-0.299-0.374-0.449-0.539
		c-0.146-0.164-0.289-0.307-0.422-0.426c-0.411-0.371-0.842-0.654-1.293-0.846c-0.449-0.195-0.907-0.285-1.376-0.274
		c-0.466,0.011-0.934,0.136-1.399,0.373c-0.466,0.24-0.922,0.604-1.368,1.095c-0.225,0.249-0.425,0.516-0.599,0.803
		c-0.171,0.286-0.304,0.583-0.396,0.895c-0.093,0.307-0.132,0.619-0.116,0.937c0.015,0.315,0.099,0.628,0.25,0.937
		c0.153,0.31,0.387,0.607,0.702,0.896c0.179,0.161,0.373,0.299,0.585,0.414c0.211,0.115,0.438,0.201,0.673,0.252
		c0.238,0.05,0.482,0.06,0.737,0.027l-0.539,0.599c-0.274,0.312-0.555,0.551-0.845,0.727c-0.288,0.173-0.586,0.247-0.893,0.221
		c-0.312-0.028-0.633-0.189-0.964-0.485c-0.161-0.145-0.298-0.285-0.409-0.412c-0.108-0.132-0.198-0.262-0.267-0.392
		c-0.063-0.122-0.086-0.231-0.067-0.327c0.02-0.094,0.077-0.189,0.17-0.29l0.47-0.522l-1.111-0.844l-1.363,1.513
		c0.064,0.162,0.157,0.338,0.279,0.526c0.12,0.191,0.262,0.383,0.421,0.582c0.157,0.198,0.324,0.392,0.5,0.58
		C29.155,135.674,29.332,135.846,29.504,136 M34.873,132.599c-0.201,0.22-0.424,0.366-0.667,0.435
		c-0.244,0.069-0.486,0.072-0.729,0.006c-0.244-0.063-0.47-0.189-0.675-0.374c-0.199-0.183-0.336-0.37-0.41-0.562
		c-0.072-0.193-0.099-0.388-0.073-0.582c0.023-0.195,0.083-0.384,0.174-0.572c0.089-0.189,0.2-0.369,0.329-0.541
		c0.128-0.172,0.261-0.334,0.396-0.48c0.332-0.368,0.673-0.643,1.018-0.821c0.348-0.179,0.692-0.25,1.029-0.216
		c0.337,0.034,0.658,0.185,0.96,0.455c0.155,0.138,0.297,0.286,0.426,0.441c0.13,0.158,0.239,0.314,0.328,0.473L34.873,132.599z
		 M43.702,130.354l-2.065-1.613l-0.748,0.958l0.386,0.339c0.084,0.072,0.137,0.148,0.157,0.229c0.022,0.078-0.008,0.17-0.086,0.273
		l-4.444,5.688c-0.071,0.091-0.14,0.151-0.208,0.182c-0.066,0.032-0.134,0.038-0.203,0.022c-0.068-0.016-0.138-0.051-0.212-0.096
		l-0.409-0.263l-0.685,0.876l2.746,2.146l0.721-0.924l-0.63-0.548L43.702,130.354z M41.98,140.655
		c-0.235-0.156-0.403-0.328-0.503-0.521c-0.101-0.195-0.152-0.402-0.15-0.621c0.003-0.221,0.044-0.449,0.121-0.684
		c0.08-0.236,0.186-0.475,0.313-0.711c0.128-0.24,0.267-0.476,0.418-0.703c0.255-0.398,0.529-0.717,0.816-0.957
		c0.29-0.24,0.59-0.381,0.902-0.422c0.31-0.038,0.629,0.043,0.953,0.25c0.324,0.213,0.525,0.472,0.602,0.775
		c0.077,0.303,0.05,0.648-0.083,1.033c-0.132,0.387-0.347,0.809-0.648,1.268c-0.276,0.428-0.565,0.775-0.865,1.041
		c-0.302,0.264-0.609,0.422-0.923,0.477C42.615,140.934,42.297,140.858,41.98,140.655 M40.582,136.622
		c-0.477,0.743-0.762,1.428-0.852,2.061c-0.092,0.629-0.013,1.195,0.241,1.697c0.254,0.504,0.655,0.932,1.208,1.291
		c0.407,0.266,0.832,0.446,1.276,0.536c0.443,0.092,0.89,0.086,1.341-0.021c0.453-0.109,0.894-0.329,1.326-0.665
		c0.431-0.334,0.84-0.793,1.225-1.383c0.302-0.469,0.517-0.902,0.648-1.303c0.126-0.396,0.187-0.758,0.182-1.088
		c-0.007-0.33-0.061-0.623-0.161-0.889c-0.102-0.265-0.234-0.499-0.392-0.703c-0.159-0.205-0.327-0.382-0.502-0.531
		c-0.175-0.148-0.342-0.273-0.496-0.371c-0.254-0.168-0.54-0.307-0.851-0.418c-0.313-0.11-0.645-0.175-0.993-0.191
		c-0.349-0.015-0.705,0.036-1.072,0.156s-0.729,0.324-1.089,0.619C41.262,135.713,40.915,136.113,40.582,136.622 M45.64,143.946
		c0.103,0.146,0.237,0.305,0.405,0.471c0.168,0.168,0.359,0.332,0.57,0.502c0.213,0.166,0.436,0.326,0.669,0.475
		c0.235,0.15,0.466,0.281,0.699,0.395c1.058,0.52,2.007,0.594,2.844,0.227c0.841-0.369,1.57-1.195,2.195-2.477
		c0.333-0.688,0.504-1.32,0.515-1.903c0.011-0.578-0.123-1.088-0.404-1.529c-0.284-0.439-0.697-0.793-1.242-1.063
		c-0.209-0.102-0.421-0.178-0.64-0.227c-0.218-0.053-0.431-0.078-0.64-0.08c-0.209,0.002-0.402,0.031-0.583,0.084l1.521-3.119
		l-2.316-1.131l-0.532,1.093l0.447,0.251c0.11,0.059,0.181,0.125,0.21,0.199c0.03,0.075,0.019,0.168-0.035,0.277L45.64,143.946z
		 M49.247,140.426c0.102-0.199,0.243-0.344,0.426-0.436c0.184-0.094,0.384-0.137,0.602-0.131c0.221,0.004,0.432,0.057,0.639,0.156
		c0.303,0.15,0.518,0.34,0.646,0.566c0.13,0.229,0.195,0.475,0.193,0.742c0.001,0.271-0.042,0.545-0.127,0.827
		c-0.088,0.279-0.195,0.549-0.324,0.809c-0.292,0.596-0.587,1.043-0.883,1.342s-0.593,0.471-0.895,0.52
		c-0.3,0.051-0.604-0.004-0.91-0.158c-0.147-0.072-0.285-0.156-0.42-0.254c-0.133-0.096-0.25-0.191-0.356-0.293
		c-0.105-0.102-0.189-0.195-0.253-0.281L49.247,140.426z M60.89,143.593c-0.279-0.254-0.562-0.479-0.846-0.674
		c-0.283-0.195-0.544-0.359-0.786-0.49c-0.243-0.131-0.438-0.225-0.592-0.287c-0.611-0.245-1.178-0.37-1.702-0.37
		s-1.002,0.111-1.434,0.334c-0.433,0.223-0.817,0.543-1.156,0.965c-0.339,0.424-0.629,0.934-0.872,1.533
		c-0.197,0.486-0.324,0.953-0.384,1.396c-0.059,0.445-0.037,0.857,0.063,1.24c0.101,0.379,0.291,0.719,0.57,1.02
		c0.277,0.295,0.657,0.543,1.133,0.738c0.251,0.102,0.508,0.158,0.77,0.176c0.26,0.014,0.517-0.014,0.771-0.078
		c0.252-0.066,0.493-0.176,0.715-0.322l0.035,0.029l-0.317,0.787l2.158,0.873l0.439-1.086l-0.423-0.203
		c-0.125-0.057-0.201-0.121-0.23-0.199c-0.027-0.076-0.011-0.186,0.051-0.332L60.89,143.593z M57.538,147.356
		c-0.059,0.146-0.15,0.279-0.267,0.393c-0.12,0.113-0.259,0.205-0.423,0.271c-0.164,0.064-0.342,0.096-0.537,0.096
		c-0.193-0.002-0.397-0.045-0.609-0.127c-0.282-0.117-0.492-0.273-0.625-0.469c-0.138-0.195-0.213-0.418-0.234-0.666
		c-0.02-0.25,0.002-0.514,0.067-0.793c0.063-0.279,0.152-0.559,0.27-0.842c0.146-0.371,0.316-0.705,0.507-1.002
		c0.188-0.297,0.4-0.543,0.632-0.734c0.232-0.189,0.489-0.311,0.766-0.361c0.276-0.049,0.577-0.01,0.899,0.119
		c0.142,0.059,0.274,0.121,0.405,0.191c0.127,0.07,0.238,0.139,0.338,0.211c0.098,0.07,0.176,0.137,0.231,0.195L57.538,147.356z
		 M65.435,141.504l-2.506-0.766l-0.356,1.162l0.481,0.178c0.107,0.037,0.183,0.09,0.231,0.158c0.049,0.064,0.052,0.16,0.017,0.285
		l-2.11,6.902c-0.033,0.109-0.076,0.191-0.127,0.244c-0.053,0.055-0.113,0.084-0.182,0.094c-0.069,0.01-0.147,0.002-0.234-0.014
		l-0.475-0.1l-0.326,1.064l3.333,1.02l0.343-1.119l-0.787-0.287L65.435,141.504z M72.171,146.177
		c-0.469-0.105-0.906-0.135-1.313-0.082c-0.407,0.051-0.78,0.168-1.12,0.35c-0.338,0.186-0.64,0.418-0.908,0.707
		c-0.264,0.289-0.49,0.617-0.672,0.986c-0.187,0.369-0.329,0.768-0.426,1.191c-0.125,0.531-0.177,1.035-0.152,1.504
		c0.022,0.469,0.132,0.893,0.327,1.277c0.191,0.383,0.485,0.709,0.87,0.982c0.387,0.275,0.886,0.482,1.488,0.623
		c0.337,0.076,0.654,0.115,0.95,0.117c0.296,0.004,0.56-0.016,0.799-0.055c0.238-0.039,0.437-0.088,0.599-0.141
		c0.163-0.055,0.278-0.102,0.347-0.141l-0.274-1.279c-0.134,0.055-0.298,0.113-0.493,0.17s-0.415,0.094-0.662,0.107
		c-0.244,0.018-0.507-0.002-0.789-0.066c-0.4-0.096-0.71-0.248-0.928-0.457c-0.218-0.207-0.357-0.453-0.422-0.734
		s-0.071-0.582-0.016-0.896c0.284,0.063,0.583,0.117,0.897,0.162c0.313,0.043,0.629,0.064,0.949,0.066
		c0.32,0.002,0.629-0.027,0.929-0.086c0.3-0.059,0.576-0.16,0.829-0.301c0.252-0.143,0.473-0.334,0.656-0.574
		c0.182-0.244,0.317-0.549,0.403-0.912c0.095-0.424,0.081-0.807-0.043-1.146c-0.125-0.34-0.342-0.625-0.654-0.857
		C73.031,146.458,72.64,146.286,72.171,146.177 M72.462,148.362c-0.052,0.219-0.15,0.395-0.292,0.523
		c-0.144,0.129-0.316,0.229-0.521,0.287c-0.204,0.061-0.425,0.094-0.66,0.104c-0.236,0.004-0.475-0.006-0.713-0.033
		c-0.24-0.031-0.467-0.068-0.681-0.115c0.071-0.264,0.175-0.516,0.305-0.752c0.13-0.24,0.287-0.445,0.474-0.621
		c0.186-0.172,0.396-0.297,0.631-0.371c0.238-0.076,0.5-0.082,0.786-0.018c0.262,0.061,0.453,0.174,0.574,0.346
		C72.489,147.88,72.521,148.099,72.462,148.362 M78.303,148.329c0.125,0.063,0.207,0.133,0.248,0.211s0.052,0.184,0.035,0.32
		l-0.065,0.611l1.321,0.035l0.185-1.746c-0.179-0.115-0.391-0.232-0.629-0.344c-0.241-0.115-0.505-0.217-0.795-0.305
		c-0.29-0.09-0.603-0.152-0.933-0.189c-0.385-0.041-0.75-0.029-1.101,0.033c-0.347,0.064-0.662,0.182-0.939,0.35
		c-0.28,0.166-0.507,0.387-0.686,0.662c-0.175,0.27-0.287,0.596-0.328,0.977c-0.04,0.4-0.007,0.738,0.097,1.016
		c0.104,0.275,0.255,0.508,0.458,0.691c0.199,0.182,0.428,0.336,0.682,0.459c0.258,0.121,0.519,0.232,0.783,0.328
		c0.258,0.09,0.491,0.184,0.7,0.279c0.206,0.092,0.365,0.209,0.48,0.35c0.113,0.139,0.16,0.326,0.137,0.555
		c-0.033,0.305-0.156,0.518-0.372,0.643c-0.214,0.123-0.505,0.166-0.872,0.123c-0.174-0.018-0.342-0.047-0.503-0.086
		c-0.16-0.041-0.309-0.094-0.442-0.16c-0.125-0.061-0.207-0.131-0.249-0.209c-0.04-0.078-0.051-0.186-0.034-0.32l0.074-0.699
		l-1.323-0.035l-0.212,2.023c0.147,0.092,0.322,0.178,0.528,0.258c0.202,0.078,0.423,0.148,0.662,0.211
		c0.236,0.064,0.479,0.117,0.725,0.162c0.248,0.043,0.486,0.078,0.717,0.102c0.394,0.043,0.763,0.029,1.113-0.035
		c0.351-0.066,0.663-0.182,0.94-0.354c0.275-0.168,0.503-0.391,0.676-0.666c0.176-0.273,0.285-0.602,0.327-0.979
		c0.038-0.395,0-0.729-0.111-1.004c-0.111-0.271-0.274-0.502-0.487-0.689c-0.216-0.184-0.457-0.346-0.729-0.473
		c-0.267-0.133-0.542-0.25-0.822-0.357c-0.168-0.064-0.333-0.133-0.49-0.207c-0.156-0.068-0.297-0.152-0.423-0.244
		c-0.123-0.092-0.217-0.201-0.286-0.322c-0.064-0.125-0.089-0.27-0.074-0.436c0.022-0.193,0.088-0.352,0.193-0.469
		c0.108-0.119,0.248-0.203,0.418-0.252s0.361-0.061,0.572-0.037c0.169,0.014,0.32,0.039,0.446,0.072
		C78.046,148.218,78.175,148.265,78.303,148.329 M81.212,156.263c-0.005,0.123-0.025,0.215-0.059,0.279
		c-0.035,0.068-0.083,0.115-0.146,0.143c-0.066,0.027-0.144,0.043-0.237,0.049l-0.484,0.025l-0.04,1.113l3.776,0.131l0.041-1.156
		l-1.184-0.1l0.071-2.02c0.126,0.082,0.272,0.162,0.441,0.23c0.169,0.07,0.347,0.127,0.536,0.17
		c0.191,0.047,0.381,0.072,0.573,0.078c0.649,0.023,1.218-0.109,1.708-0.4c0.488-0.289,0.875-0.732,1.16-1.328
		c0.287-0.598,0.445-1.344,0.48-2.242c0.028-0.871-0.057-1.584-0.252-2.141c-0.194-0.553-0.485-0.967-0.87-1.238
		c-0.386-0.27-0.853-0.412-1.397-0.43c-0.313-0.01-0.596,0.018-0.852,0.082c-0.259,0.064-0.487,0.152-0.687,0.262
		c-0.199,0.113-0.367,0.232-0.502,0.363c-0.137,0.131-0.242,0.258-0.311,0.383l0.032-0.951l-2.473-0.086l-0.042,1.184l0.613,0.066
		c0.138,0.002,0.232,0.041,0.285,0.107c0.052,0.07,0.074,0.186,0.066,0.344L81.212,156.263z M86.029,151.319
		c-0.008,0.322-0.049,0.633-0.118,0.93c-0.068,0.301-0.17,0.57-0.311,0.809c-0.138,0.236-0.315,0.424-0.534,0.557
		c-0.217,0.137-0.484,0.201-0.794,0.193c-0.129-0.006-0.268-0.021-0.417-0.055c-0.148-0.031-0.298-0.078-0.444-0.137
		c-0.15-0.059-0.286-0.133-0.413-0.221l0.117-3.365c0.011-0.227,0.084-0.434,0.22-0.619c0.136-0.184,0.317-0.332,0.543-0.438
		c0.226-0.107,0.479-0.158,0.76-0.15c0.195,0.004,0.381,0.047,0.554,0.127c0.173,0.082,0.328,0.215,0.458,0.402
		c0.132,0.186,0.234,0.438,0.301,0.76C86.018,150.433,86.044,150.833,86.029,151.319 M89.608,153.288
		c0.003,0.119-0.01,0.215-0.039,0.281c-0.03,0.07-0.074,0.119-0.137,0.152c-0.063,0.031-0.14,0.053-0.233,0.064l-0.479,0.059
		l0.038,1.113l3.922-0.137l-0.041-1.156l-1.274-0.014l-0.119-3.395c-0.007-0.287,0.04-0.543,0.144-0.768
		c0.102-0.227,0.252-0.404,0.446-0.539c0.195-0.135,0.424-0.207,0.69-0.219c0.078-0.004,0.149,0,0.208,0.008
		c0.062,0.006,0.125,0.023,0.19,0.051c0.057,0.027,0.097,0.074,0.122,0.135c0.021,0.063,0.033,0.139,0.037,0.227l0.023,0.672
		l1.357-0.148l-0.076-2.182c-0.243-0.109-0.479-0.182-0.711-0.223c-0.23-0.045-0.465-0.061-0.704-0.049
		c-0.325,0.014-0.62,0.084-0.887,0.209c-0.27,0.125-0.5,0.291-0.696,0.498c-0.195,0.205-0.344,0.432-0.449,0.682l-0.04-1.098
		l-2.473,0.086l0.042,1.186l0.616,0.023c0.137,0,0.234,0.031,0.292,0.096c0.056,0.061,0.087,0.172,0.089,0.33L89.608,153.288z
		 M98.103,146.444c-0.476,0.07-0.894,0.201-1.256,0.395c-0.362,0.193-0.668,0.436-0.92,0.729c-0.25,0.293-0.448,0.619-0.593,0.984
		c-0.144,0.367-0.237,0.754-0.275,1.164c-0.041,0.412-0.03,0.832,0.03,1.264c0.074,0.543,0.206,1.029,0.396,1.457
		c0.189,0.43,0.445,0.789,0.763,1.076c0.317,0.289,0.708,0.49,1.165,0.605c0.46,0.119,1,0.133,1.614,0.051
		c0.34-0.051,0.649-0.131,0.928-0.232c0.276-0.104,0.517-0.215,0.727-0.338c0.207-0.121,0.375-0.238,0.508-0.346
		c0.132-0.111,0.224-0.193,0.274-0.256l-0.716-1.098c-0.104,0.102-0.236,0.213-0.398,0.338c-0.164,0.121-0.354,0.234-0.579,0.338
		c-0.222,0.102-0.476,0.178-0.76,0.221c-0.409,0.055-0.753,0.02-1.031-0.096s-0.495-0.295-0.657-0.533
		c-0.161-0.24-0.274-0.518-0.336-0.832c0.288-0.043,0.585-0.1,0.896-0.172c0.307-0.072,0.61-0.164,0.91-0.277
		c0.299-0.113,0.578-0.252,0.835-0.414c0.259-0.16,0.48-0.355,0.666-0.574c0.186-0.225,0.322-0.482,0.407-0.773
		c0.083-0.293,0.1-0.625,0.05-0.994c-0.063-0.43-0.214-0.785-0.451-1.057c-0.238-0.271-0.543-0.461-0.918-0.566
		C99.005,146.399,98.579,146.378,98.103,146.444 M99.159,148.382c0.029,0.223,0,0.422-0.086,0.594
		c-0.087,0.172-0.214,0.326-0.383,0.453c-0.169,0.129-0.363,0.24-0.579,0.332c-0.22,0.092-0.446,0.168-0.679,0.227
		c-0.234,0.057-0.459,0.104-0.676,0.137c-0.028-0.271-0.022-0.543,0.015-0.813c0.036-0.27,0.11-0.518,0.219-0.748
		c0.112-0.227,0.265-0.418,0.457-0.574c0.195-0.154,0.438-0.254,0.728-0.297c0.266-0.037,0.485,0,0.66,0.117
		C99.01,147.923,99.118,148.114,99.159,148.382 M104.659,146.253c0.138,0.016,0.239,0.053,0.306,0.111
		c0.065,0.059,0.112,0.156,0.142,0.289l0.149,0.598l1.254-0.418l-0.425-1.705c-0.208-0.047-0.446-0.084-0.709-0.107
		c-0.264-0.025-0.547-0.029-0.851-0.016c-0.304,0.016-0.618,0.064-0.941,0.143c-0.376,0.092-0.715,0.229-1.021,0.408
		c-0.306,0.178-0.561,0.395-0.765,0.646c-0.206,0.254-0.344,0.539-0.417,0.857c-0.073,0.314-0.064,0.66,0.026,1.031
		c0.099,0.389,0.246,0.697,0.438,0.922c0.192,0.223,0.414,0.389,0.665,0.492c0.25,0.104,0.519,0.17,0.8,0.197
		c0.283,0.027,0.566,0.043,0.847,0.041c0.273-0.004,0.525,0.006,0.753,0.023c0.225,0.018,0.416,0.074,0.571,0.164
		c0.154,0.092,0.262,0.252,0.319,0.475c0.073,0.299,0.03,0.539-0.128,0.73c-0.159,0.188-0.419,0.33-0.777,0.416
		c-0.171,0.043-0.339,0.07-0.502,0.09c-0.165,0.016-0.323,0.018-0.47,0c-0.138-0.014-0.24-0.053-0.305-0.111
		c-0.065-0.061-0.112-0.156-0.143-0.289l-0.17-0.682l-1.254,0.418l0.493,1.975c0.17,0.035,0.364,0.059,0.584,0.061
		c0.217,0.008,0.449-0.004,0.694-0.027c0.244-0.02,0.491-0.053,0.736-0.096c0.249-0.043,0.485-0.094,0.711-0.148
		c0.383-0.096,0.726-0.234,1.033-0.414c0.307-0.182,0.559-0.398,0.763-0.652c0.2-0.254,0.338-0.539,0.407-0.859
		c0.072-0.316,0.061-0.66-0.029-1.031c-0.098-0.383-0.248-0.684-0.446-0.904c-0.197-0.219-0.429-0.379-0.693-0.48
		c-0.266-0.1-0.547-0.168-0.846-0.197c-0.297-0.031-0.596-0.047-0.897-0.055c-0.179-0.002-0.357-0.012-0.529-0.025
		c-0.171-0.012-0.333-0.043-0.481-0.086c-0.146-0.045-0.272-0.113-0.378-0.205c-0.104-0.096-0.176-0.223-0.218-0.383
		c-0.045-0.191-0.037-0.361,0.021-0.508c0.062-0.148,0.164-0.275,0.308-0.381c0.143-0.102,0.318-0.178,0.524-0.229
		c0.165-0.045,0.314-0.072,0.444-0.084S104.517,146.235,104.659,146.253 M110.615,144.472c0.139,0.006,0.242,0.037,0.312,0.092
		c0.068,0.055,0.122,0.146,0.163,0.277l0.188,0.586l1.223-0.504l-0.543-1.672c-0.21-0.031-0.45-0.051-0.714-0.059
		c-0.267-0.006-0.549,0.01-0.85,0.045c-0.303,0.037-0.613,0.107-0.93,0.207c-0.368,0.119-0.697,0.277-0.99,0.479
		c-0.293,0.199-0.532,0.436-0.717,0.701c-0.189,0.266-0.307,0.561-0.357,0.883c-0.052,0.318-0.02,0.662,0.096,1.025
		c0.127,0.381,0.296,0.68,0.502,0.889c0.207,0.211,0.441,0.359,0.699,0.445c0.257,0.086,0.529,0.133,0.811,0.143
		c0.285,0.008,0.568,0.002,0.85-0.02c0.271-0.021,0.522-0.031,0.752-0.029c0.227,0,0.42,0.043,0.582,0.125
		c0.159,0.082,0.277,0.232,0.352,0.449c0.094,0.295,0.066,0.537-0.078,0.738c-0.146,0.199-0.395,0.357-0.746,0.469
		c-0.168,0.055-0.333,0.096-0.496,0.125c-0.163,0.027-0.32,0.041-0.469,0.035c-0.138-0.008-0.242-0.037-0.313-0.092
		c-0.068-0.055-0.121-0.146-0.162-0.277l-0.217-0.668l-1.222,0.504l0.629,1.936c0.173,0.023,0.368,0.031,0.587,0.02
		c0.217-0.01,0.447-0.035,0.691-0.076c0.241-0.037,0.484-0.088,0.727-0.146c0.244-0.063,0.478-0.125,0.698-0.197
		c0.376-0.123,0.708-0.285,1.003-0.486c0.292-0.201,0.529-0.436,0.715-0.703c0.184-0.268,0.299-0.563,0.347-0.885
		c0.049-0.322,0.015-0.666-0.101-1.029c-0.125-0.375-0.296-0.664-0.509-0.871c-0.212-0.201-0.454-0.348-0.726-0.43
		c-0.273-0.082-0.557-0.131-0.858-0.137c-0.298-0.012-0.597-0.008-0.897,0.008c-0.179,0.01-0.357,0.014-0.53,0.012
		c-0.173,0-0.335-0.02-0.485-0.051c-0.15-0.035-0.28-0.096-0.393-0.18c-0.11-0.088-0.191-0.211-0.244-0.367
		c-0.059-0.186-0.063-0.357-0.014-0.508c0.049-0.154,0.143-0.285,0.279-0.4c0.136-0.113,0.305-0.201,0.508-0.268
		c0.16-0.055,0.308-0.092,0.438-0.113C110.333,144.474,110.47,144.464,110.615,144.472 M117.833,147.161
		c-0.258,0.111-0.494,0.158-0.711,0.137c-0.218-0.021-0.42-0.092-0.603-0.213s-0.353-0.281-0.509-0.473
		c-0.152-0.197-0.295-0.414-0.426-0.65c-0.129-0.238-0.251-0.482-0.359-0.734c-0.195-0.432-0.313-0.832-0.359-1.205
		c-0.043-0.373,0.003-0.703,0.139-0.986c0.137-0.283,0.379-0.504,0.728-0.664c0.356-0.154,0.683-0.184,0.979-0.082
		s0.572,0.311,0.821,0.633c0.252,0.32,0.488,0.732,0.71,1.234c0.21,0.465,0.343,0.896,0.402,1.293
		c0.056,0.396,0.022,0.74-0.103,1.035C118.414,146.778,118.177,147.005,117.833,147.161 M113.689,146.136
		c0.364,0.805,0.784,1.416,1.265,1.836c0.478,0.422,0.997,0.662,1.556,0.723s1.139-0.041,1.74-0.309
		c0.445-0.197,0.826-0.455,1.145-0.779c0.318-0.32,0.557-0.699,0.712-1.137c0.154-0.438,0.212-0.928,0.165-1.475
		c-0.045-0.543-0.207-1.137-0.492-1.779c-0.229-0.51-0.476-0.926-0.738-1.252c-0.265-0.323-0.535-0.573-0.813-0.747
		c-0.28-0.176-0.556-0.289-0.834-0.35c-0.277-0.059-0.546-0.076-0.804-0.055c-0.259,0.021-0.497,0.066-0.719,0.133
		c-0.22,0.066-0.414,0.137-0.581,0.213c-0.28,0.123-0.552,0.287-0.815,0.486c-0.262,0.203-0.496,0.446-0.701,0.729
		c-0.201,0.285-0.352,0.611-0.451,0.984s-0.125,0.787-0.073,1.25C113.298,145.069,113.445,145.581,113.689,146.136 M125.109,144.341
		c0.178-0.008,0.383-0.039,0.613-0.094c0.231-0.055,0.473-0.129,0.727-0.219c0.254-0.092,0.509-0.195,0.76-0.314
		c0.25-0.121,0.484-0.246,0.704-0.383c1.001-0.623,1.567-1.389,1.698-2.293c0.133-0.908-0.18-1.965-0.936-3.175
		c-0.406-0.646-0.854-1.127-1.34-1.444c-0.485-0.315-0.99-0.474-1.514-0.468c-0.521,0.007-1.041,0.17-1.558,0.491
		c-0.196,0.122-0.374,0.263-0.53,0.42c-0.16,0.157-0.295,0.325-0.406,0.502c-0.111,0.178-0.189,0.356-0.24,0.538l-1.838-2.943
		l-2.186,1.366l0.644,1.029l0.45-0.246c0.107-0.063,0.202-0.086,0.279-0.071c0.08,0.013,0.152,0.071,0.217,0.175L125.109,144.341z
		 M124.035,139.417c-0.114-0.191-0.162-0.389-0.144-0.594c0.019-0.203,0.089-0.396,0.208-0.578c0.121-0.185,0.277-0.336,0.471-0.458
		c0.289-0.177,0.563-0.26,0.822-0.249c0.264,0.011,0.506,0.087,0.734,0.229c0.23,0.145,0.438,0.325,0.632,0.547
		c0.19,0.223,0.362,0.455,0.515,0.703c0.349,0.564,0.572,1.051,0.67,1.461c0.096,0.408,0.085,0.752-0.033,1.033
		c-0.117,0.281-0.323,0.51-0.618,0.688c-0.138,0.086-0.282,0.16-0.437,0.223c-0.151,0.063-0.297,0.111-0.438,0.146
		c-0.142,0.037-0.268,0.057-0.373,0.064L124.035,139.417z M132.735,131.021c-0.362,0.107-0.701,0.235-1.013,0.378
		c-0.315,0.143-0.59,0.282-0.826,0.421c-0.236,0.142-0.419,0.261-0.552,0.36c-0.524,0.398-0.921,0.82-1.192,1.268
		c-0.269,0.451-0.421,0.918-0.452,1.403c-0.032,0.485,0.045,0.979,0.231,1.487c0.188,0.51,0.475,1.02,0.865,1.537
		c0.315,0.418,0.648,0.768,1,1.047c0.351,0.281,0.715,0.475,1.094,0.586c0.379,0.107,0.768,0.121,1.168,0.035
		c0.397-0.084,0.805-0.281,1.219-0.59c0.216-0.162,0.396-0.354,0.543-0.57c0.148-0.214,0.258-0.449,0.332-0.7
		c0.072-0.25,0.104-0.511,0.092-0.778l0.044-0.015l0.511,0.678l1.859-1.401l-0.705-0.936l-0.391,0.259
		c-0.113,0.079-0.209,0.11-0.289,0.096c-0.08-0.017-0.166-0.086-0.26-0.214L132.735,131.021z M134.234,135.833
		c0.096,0.127,0.162,0.271,0.199,0.43c0.035,0.162,0.043,0.328,0.015,0.504c-0.028,0.173-0.095,0.341-0.194,0.508
		c-0.102,0.166-0.242,0.318-0.422,0.457c-0.246,0.182-0.488,0.281-0.725,0.295c-0.238,0.018-0.469-0.031-0.691-0.142
		c-0.225-0.112-0.439-0.267-0.645-0.466c-0.207-0.197-0.4-0.418-0.584-0.666c-0.241-0.316-0.44-0.633-0.596-0.95
		c-0.158-0.313-0.26-0.624-0.304-0.92c-0.044-0.298-0.015-0.579,0.083-0.843c0.102-0.263,0.291-0.499,0.564-0.71
		c0.123-0.093,0.247-0.173,0.375-0.247c0.123-0.073,0.24-0.133,0.354-0.182c0.111-0.047,0.208-0.08,0.287-0.098L134.234,135.833z"/>
	<path fill="#FFFFFF" d="M137.727,133.641c0.079,0.092,0.129,0.174,0.147,0.245c0.021,0.071,0.018,0.139-0.011,0.202
		c-0.028,0.064-0.074,0.131-0.14,0.196l-0.336,0.351l0.729,0.84l2.962-2.574l-0.759-0.874l-0.999,0.792l-2.229-2.563
		c-0.187-0.218-0.31-0.446-0.37-0.687c-0.063-0.24-0.06-0.474,0.008-0.699c0.065-0.229,0.199-0.428,0.398-0.605
		c0.059-0.051,0.115-0.094,0.165-0.125c0.053-0.032,0.113-0.059,0.181-0.078c0.062-0.016,0.121-0.006,0.18,0.027
		c0.057,0.035,0.113,0.087,0.172,0.152l0.441,0.508l0.96-0.971l-1.431-1.646c-0.258,0.068-0.489,0.16-0.694,0.273
		c-0.207,0.112-0.399,0.247-0.579,0.406c-0.242,0.215-0.428,0.456-0.557,0.721c-0.129,0.268-0.205,0.541-0.227,0.824
		c-0.023,0.283,0.004,0.553,0.08,0.813l-0.722-0.829l-1.867,1.624l0.778,0.896l0.493-0.371c0.105-0.086,0.2-0.123,0.286-0.109
		c0.082,0.013,0.176,0.08,0.278,0.201L137.727,133.641z"/>
</g>
</svg>
