<?xml version="1.0" encoding="utf-8"?>
<!-- Generator: Adobe Illustrator 16.0.0, SVG Export Plug-In . SVG Version: 6.00 Build 0)  -->
<!DOCTYPE svg PUBLIC "-//W3C//DTD SVG 1.1//EN" "http://www.w3.org/Graphics/SVG/1.1/DTD/svg11.dtd">
<svg version="1.1" id="Warstwa_1" xmlns="http://www.w3.org/2000/svg" xmlns:xlink="http://www.w3.org/1999/xlink" x="0px" y="0px"
	 width="50px" height="20.375px" viewBox="0 14.875 50 20.375" enable-background="new 0 14.875 50 20.375" xml:space="preserve">
<path d="M0.646,25.52l8.625,8.625c0.257,0.273,0.673,0.273,0.929,0.018c0.256-0.257,0.256-0.673,0-0.929l-7.536-7.521l46.215,0.001
	c0.374,0.012,0.669-0.283,0.669-0.645c-0.001-0.363-0.295-0.656-0.657-0.656L2.673,24.421l7.526-7.527
	c0.256-0.256,0.256-0.673,0-0.928c-0.256-0.257-0.672-0.257-0.929,0l-8.625,8.626c-0.129,0.128-0.192,0.288-0.192,0.463
	C0.453,25.216,0.517,25.392,0.646,25.52z"/>
</svg>
