<?xml version="1.0" encoding="utf-8"?>
<!-- Generator: Adobe Illustrator 16.0.0, SVG Export Plug-In . SVG Version: 6.00 Build 0)  -->
<!DOCTYPE svg PUBLIC "-//W3C//DTD SVG 1.1//EN" "http://www.w3.org/Graphics/SVG/1.1/DTD/svg11.dtd">
<svg version="1.1" id="Warstwa_1" xmlns="http://www.w3.org/2000/svg" xmlns:xlink="http://www.w3.org/1999/xlink" x="0px" y="0px"
	 width="50px" height="50px" viewBox="0 0 50 50" enable-background="new 0 0 50 50" xml:space="preserve">
<g>
	<path fill="#010101" d="M31.045,37.07c4.292-7.134,9.35-16.587,9.35-21.516c0-8.494-6.91-15.405-15.405-15.405
		c-8.494,0-15.405,6.911-15.405,15.405c0,4.93,5.057,14.382,9.347,21.516c-5.009,0.392-16.109,1.771-16.109,6.276
		c0,4.469,11.496,6.504,22.176,6.504c10.681,0,22.176-2.035,22.176-6.506C47.167,38.841,36.059,37.461,31.045,37.07z M24.99,2.5
		c7.197,0,13.053,5.855,13.053,13.053c0,4.986-6.723,17.041-13.053,26.725c-6.326-9.676-13.044-21.728-13.044-26.725
		C11.946,8.356,17.798,2.5,24.99,2.5z M5.175,43.335c0-0.36,0.752-1.218,3.571-2.143c2.028-0.665,5.68-1.529,11.575-1.874
		c2.01,3.239,3.5,5.477,3.703,5.751c0.186,0.247,0.563,0.496,0.987,0.496c0.245,0,0.607-0.085,0.96-0.502
		c0.226-0.273,1.67-2.474,3.699-5.745c5.899,0.345,9.549,1.206,11.574,1.871c2.82,0.923,3.572,1.783,3.572,2.141
		c-0.004,0.601-1.586,1.662-5.047,2.571c-2.752,0.725-7.551,1.588-14.779,1.588c-7.224,0-12.024-0.865-14.779-1.592
		C6.228,44.849,5.175,43.762,5.175,43.335z"/>
	<path fill="#010101" d="M24.99,22.33c3.737,0,6.777-3.039,6.777-6.776c0-3.737-3.04-6.777-6.777-6.777s-6.777,3.04-6.777,6.777
		C18.213,19.291,21.253,22.33,24.99,22.33z M24.99,11.128c2.439,0,4.425,1.985,4.425,4.425c0,2.44-1.986,4.426-4.425,4.426
		c-2.44,0-4.425-1.985-4.425-4.426C20.565,13.114,22.55,11.128,24.99,11.128z"/>
</g>
</svg>
