<?xml version="1.0" encoding="utf-8"?>
<!-- Generator: Adobe Illustrator 16.0.0, SVG Export Plug-In . SVG Version: 6.00 Build 0)  -->
<!DOCTYPE svg PUBLIC "-//W3C//DTD SVG 1.1//EN" "http://www.w3.org/Graphics/SVG/1.1/DTD/svg11.dtd">
<svg version="1.1" id="Warstwa_1" xmlns="http://www.w3.org/2000/svg" xmlns:xlink="http://www.w3.org/1999/xlink" x="0px" y="0px"
	 width="50px" height="50px" viewBox="0 0 50 50" enable-background="new 0 0 50 50" xml:space="preserve">
<g>
	<path fill="#010101" d="M26.053,8.169L8.73,42.814c-0.394,1.181-1.379,1.771-2.756,1.771H2.233c-1.377,0-2.361-0.982-1.573-2.756
		L16.013,7.382C16.602,6.2,17.39,5.414,18.77,5.414h5.707C26.25,5.414,26.839,6.398,26.053,8.169z M49.278,8.169L32.152,42.814
		c-0.588,1.181-1.572,1.771-2.953,1.771h-3.541c-1.576,0-2.362-0.982-1.576-2.756L39.239,7.382c0.591-1.182,1.379-1.968,2.757-1.968
		h5.709C49.477,5.414,50.065,6.398,49.278,8.169z"/>
</g>
</svg>
