<?xml version="1.0" encoding="utf-8"?>
<!-- Generator: Adobe Illustrator 15.1.0, SVG Export Plug-In . SVG Version: 6.00 Build 0)  -->
<!DOCTYPE svg PUBLIC "-//W3C//DTD SVG 1.1//EN" "http://www.w3.org/Graphics/SVG/1.1/DTD/svg11.dtd">
<svg version="1.1" id="Layer_1" xmlns="http://www.w3.org/2000/svg" xmlns:xlink="http://www.w3.org/1999/xlink" x="0px" y="0px"
	 width="100px" height="100px" viewBox="0 0 100 100" enable-background="new 0 0 100 100" xml:space="preserve">
<path id="Icon" fill="#010101" d="M54.045,26.432c-2.305-2.056-5.784-2.056-8.09,0L1.896,66.903
	c-1.026,0.909-1.123,2.478-0.215,3.506c0.066,0.074,0.139,0.146,0.215,0.214l4.05,3.719c1.153,1.028,2.895,1.028,4.049,0
	l37.98-34.91c1.153-1.027,2.895-1.027,4.049,0l38.017,34.902c1.154,1.028,2.895,1.028,4.048,0l4.015-3.711
	c1.026-0.909,1.123-2.479,0.215-3.504c-0.068-0.077-0.139-0.149-0.215-0.216L54.045,26.432z"/>
</svg>
