<?xml version="1.0" encoding="utf-8"?>
<!-- Generator: Adobe Illustrator 15.1.0, SVG Export Plug-In . SVG Version: 6.00 Build 0)  -->
<!DOCTYPE svg PUBLIC "-//W3C//DTD SVG 1.1//EN" "http://www.w3.org/Graphics/SVG/1.1/DTD/svg11.dtd">
<svg version="1.1" id="Layer_1" xmlns="http://www.w3.org/2000/svg" xmlns:xlink="http://www.w3.org/1999/xlink" x="0px" y="0px"
	 width="100px" height="100px" viewBox="0 0 100 100" enable-background="new 0 0 100 100" xml:space="preserve">
<path id="Icon" fill="#010101" d="M73.57,54.045c2.056-2.305,2.056-5.784,0-8.09L33.098,1.897c-0.909-1.026-2.478-1.123-3.506-0.215
	c-0.075,0.067-0.147,0.139-0.214,0.215l-3.719,4.049c-1.028,1.154-1.028,2.895,0,4.049L60.57,47.976
	c1.027,1.153,1.027,2.894,0,4.048L25.667,90.041c-1.028,1.154-1.028,2.895,0,4.048l3.711,4.015c0.909,1.026,2.478,1.123,3.503,0.215
	c0.077-0.068,0.149-0.139,0.216-0.215L73.57,54.045z"/>
</svg>
