<?xml version="1.0" encoding="utf-8"?>
<!-- Generator: Adobe Illustrator 15.1.0, SVG Export Plug-In . SVG Version: 6.00 Build 0)  -->
<!DOCTYPE svg PUBLIC "-//W3C//DTD SVG 1.1//EN" "http://www.w3.org/Graphics/SVG/1.1/DTD/svg11.dtd">
<svg version="1.1" id="Layer_1" xmlns="http://www.w3.org/2000/svg" xmlns:xlink="http://www.w3.org/1999/xlink" x="0px" y="0px"
	 width="100px" height="100px" viewBox="0 0 100 100" enable-background="new 0 0 100 100" xml:space="preserve">
<path fill="#010101" d="M87.888,3.4L50,41.288L12.112,3.4c-0.719-0.72-1.886-0.72-2.604,0L3.4,9.506
	c-0.719,0.72-0.719,1.886,0,2.606L41.288,50L3.4,87.888c-0.72,0.72-0.72,1.887,0,2.606L9.506,96.6c0.72,0.721,1.886,0.721,2.606,0
	L50,58.712l37.887,37.887c0.721,0.72,1.888,0.72,2.607,0.001l6.105-6.106c0.72-0.719,0.72-1.887,0-2.606L58.712,50L96.6,12.112
	c0.72-0.72,0.72-1.887,0.002-2.606L90.495,3.4C89.774,2.68,88.607,2.68,87.888,3.4z"/>
</svg>
