<?xml version="1.0" encoding="utf-8"?>
<!-- Generator: Adobe Illustrator 15.1.0, SVG Export Plug-In . SVG Version: 6.00 Build 0)  -->
<!DOCTYPE svg PUBLIC "-//W3C//DTD SVG 1.1//EN" "http://www.w3.org/Graphics/SVG/1.1/DTD/svg11.dtd">
<svg version="1.1" id="Layer_1" xmlns="http://www.w3.org/2000/svg" xmlns:xlink="http://www.w3.org/1999/xlink" x="0px" y="0px"
	 width="100px" height="100px" viewBox="0 0 100 100" enable-background="new 0 0 100 100" xml:space="preserve">
<g id="Mask-2">
	<g id="Group_17">
		<path id="Icon" d="M91.178,92.01c-1.021-0.015-1.836-0.851-1.827-1.871c0.164-11.833-9.281-21.565-21.114-21.759h-1.992
			c-1.175,6.299-8.195,11.051-16.325,11.051c-8.129,0-15.15-4.752-16.328-11.051h-1.828c-11.832,0.193-21.275,9.926-21.112,21.759
			c0.01,1.021-0.807,1.857-1.828,1.871C7.804,91.995,6.988,91.158,7,90.139c-0.186-13.873,10.89-25.28,24.763-25.503h6.242v-8.316
			c-4.019-3.356-6.53-8.181-6.973-13.398l-1.147-11.604c-0.091-0.817-0.139-1.64-0.143-2.463C29.591,17.506,38.651,8.174,50,7.99
			c11.35,0.183,20.413,9.515,20.263,20.864c-0.004,0.799-0.051,1.597-0.142,2.389L68.97,42.948
			c-0.446,5.211-2.954,10.027-6.968,13.38v8.314h6.236C82.107,64.866,93.182,76.27,93,90.139
			C93.012,91.158,92.197,91.995,91.178,92.01z M37.339,68.38c1.288,4.233,6.576,7.309,12.58,7.309
			c6.003,0,11.298-3.075,12.582-7.309h-2.325c-1.021-0.016-1.838-0.853-1.826-1.874v-7.793c-5.256,2.626-11.439,2.626-16.694,0
			v7.805c0.012,1.021-0.805,1.859-1.825,1.874h-2.492V68.38z M50,11.733c-9.31,0.154-16.739,7.813-16.609,17.124
			c0.003,0.656,0.042,1.312,0.117,1.963l1.159,11.741c0.549,8.471,7.861,14.891,16.33,14.34c7.703-0.499,13.841-6.636,14.34-14.34
			l1.147-11.619c0.078-0.692,0.12-1.389,0.124-2.085C66.736,19.548,59.309,11.89,50,11.733z"/>
	</g>
</g>
</svg>
